<?xml version="1.0" encoding="utf-8"?>
<!-- Generator: Adobe Illustrator 24.0.1, SVG Export Plug-In . SVG Version: 6.00 Build 0)  -->
<svg version="1.1" id="Layer_1" xmlns="http://www.w3.org/2000/svg" xmlns:xlink="http://www.w3.org/1999/xlink" x="0px" y="0px"
	 viewBox="0 0 1080 1080" style="enable-background:new 0 0 1080 1080;" xml:space="preserve">
<style type="text/css">
	.st0{fill:#FFFFFF;}
	.st1{opacity:0.7;fill:url(#SVGID_1_);}
	.st2{opacity:0.7;fill:url(#SVGID_2_);}
	.st3{opacity:0.7;fill:url(#SVGID_3_);}
	.st4{opacity:0.7;fill:url(#SVGID_4_);}
	.st5{opacity:0.7;fill:url(#SVGID_5_);}
	.st6{opacity:0.7;fill:url(#SVGID_6_);}
	.st7{opacity:0.7;fill:url(#SVGID_7_);}
	.st8{opacity:0.7;fill:url(#SVGID_8_);}
	.st9{opacity:0.7;fill:url(#SVGID_9_);}
	.st10{opacity:0.7;fill:url(#SVGID_10_);}
	.st11{opacity:0.7;fill:url(#SVGID_11_);}
	.st12{opacity:0.7;fill:url(#SVGID_12_);}
</style>
<g>
	<path style="fill: #000;" class="st0" d="M657.58,892.53c0-4.28,0-7.93,0-11.57c0-73.88-0.03-147.76,0.03-221.64c0.01-13.83,7.02-24.43,18.63-28.97
		c11.24-4.39,24.44-2.12,31.8,7.45c4.22,5.49,7.99,13.08,8.03,19.75c0.53,88.29,0.45,176.58,0.27,264.87
		c-0.04,17.81-12.98,29.6-31.68,29.63c-53.34,0.08-106.67,0.03-160.01,0.03c-120.46,0-240.93,0-361.39,0
		c-24.46,0-35.43-10.89-35.43-35.19c-0.01-251.38-0.01-502.76,0-754.14c0-23.89,10.93-34.82,34.83-34.82
		c172.88-0.01,345.76-0.01,518.64,0c24.27,0,35.13,10.97,35.13,35.49c0.01,84.3,0.01,168.61-0.01,252.91c0,3.67,0.17,7.42-0.45,11
		c-2.59,14.79-16.28,25.35-31.11,24.29c-14.45-1.04-26.24-12.95-27.19-27.64c-0.26-3.97-0.09-7.97-0.09-11.95
		c0-71.43,0-142.86,0-214.29c0-3.31,0-6.62,0-10.43c-156.96,0-313.17,0-470.14,0c0,234.7,0,469.63,0,705.23
		C343.58,892.53,500.01,892.53,657.58,892.53z"/>
	<path style="fill: #000;" class="st0" d="M392.58,327.04c0.36,22.24-11.73,35.82-28.39,36.32c-16.35,0.49-29.1-11.79-30.34-29.22
		c-1.28-18.03-14.17-30.36-30.9-29.56c-15.56,0.74-28.11,14.08-27.93,29.72c0.18,16.3,12.82,28.38,30.48,29.12
		c42.35,1.76,76.87,29.89,85.18,69.42c8.68,41.27-11.32,80.74-50.5,99.03c-4.42,2.06-6.31,4.09-6.57,9.29
		c-0.8,16.36-13.59,28.27-29.26,28.24c-15.64-0.03-28.4-12.02-29.14-28.37c-0.24-5.24-2.22-7.11-6.62-9.23
		c-32.26-15.54-50.29-41.14-52.29-77.13c-1-18.07,11.2-31.62,27.87-32.36c16.74-0.75,29.53,11.56,30.82,29.65
		c1.08,15.2,10.91,26.58,24.93,28.86c13.06,2.13,26.86-5.8,31.83-18.28c5.06-12.71,0.97-27.45-10.84-34.78
		c-4.95-3.07-11.32-5-17.16-5.31c-42.97-2.26-77.76-30.47-85.69-70.14c-8.4-42.04,11.37-79.73,51.73-99.39
		c2.45-1.19,4.71-5.12,5.01-7.99c1.69-16.57,13.45-28.46,29.15-28.68c16.03-0.23,28.89,11.76,29.64,28.77
		c0.24,5.59,3.02,7,7.07,8.95C373.09,269.58,390.02,295.71,392.58,327.04z"/>
	<path style="fill: #000;" class="st0" d="M851.03,569.43c-5.6,0-8.95,0-12.3,0c-126.85,0-253.7,0-380.54-0.02c-3.97,0-8.04,0.2-11.91-0.51
		c-14.81-2.71-25.2-16.41-24.05-31.27c1.12-14.51,12.96-26.06,27.77-26.99c3.05-0.19,6.13-0.07,9.19-0.07
		c126.54,0,253.08,0,379.62,0c3.33,0,6.67,0,12.22,0c-3.81-4.02-6.47-6.68-8.96-9.48c-10.79-12.15-10.45-29.45,0.75-40.69
		c11.17-11.21,28.94-12.02,40.6-0.75c20.49,19.79,40.63,39.97,60.45,60.44c11.08,11.43,11.06,28.41-0.05,39.89
		c-19.6,20.26-39.56,40.18-59.76,59.83c-12.06,11.73-29.9,11.25-41.3-0.25c-11.41-11.51-11.43-28.99-0.01-41.37
		C844.98,575.76,847.27,573.4,851.03,569.43z"/>
	<path style="fill: #000;" class="st0" d="M422.5,687.16c-48.74,0-97.47,0.15-146.21-0.06c-23.49-0.1-37.87-22.9-27.31-42.9
		c5.48-10.38,14.39-15.83,26.09-15.84c98.09-0.08,196.17-0.13,294.26,0.03c16.56,0.03,29.28,13.19,29.35,29.19
		c0.07,16.38-12.81,29.44-29.97,29.51C519.98,687.27,471.24,687.15,422.5,687.16z"/>
	<path style="fill: #000;" class="st0" d="M423.06,746.03c47.51,0,95.02-0.02,142.53,0.01c19.59,0.01,32.98,11.89,33.09,29.21
		c0.11,17.39-13.26,29.62-32.67,29.63c-95.94,0.04-191.88,0.04-287.82,0c-19.37-0.01-32.75-12.3-32.61-29.69
		c0.14-17.38,13.42-29.13,33.11-29.15C326.81,746.01,374.94,746.03,423.06,746.03z"/>
	<path style="fill: #000;" class="st0" d="M510.73,333.95c-19,0-38,0.09-57-0.02c-18.52-0.11-31.76-12.73-31.56-29.81c0.2-16.74,13.25-28.95,31.39-29
		c38-0.1,76.01-0.11,114.01,0c17.93,0.05,31.08,12.62,31.12,29.31c0.04,16.72-13.06,29.34-30.95,29.49
		C548.73,334.07,529.73,333.95,510.73,333.95z"/>
	<path style="fill: #000;" class="st0" d="M510.43,392.82c19,0,38-0.09,57,0.03c17.99,0.11,31.14,12.5,31.25,29.18c0.11,16.74-12.97,29.54-30.81,29.61
		c-38.31,0.14-76.62,0.15-114.93,0c-17.82-0.07-30.9-12.92-30.77-29.65c0.13-16.75,13.18-29.02,31.25-29.14
		C472.42,392.73,491.42,392.82,510.43,392.82z"/>
</g>
</svg>
