<?xml version="1.0" encoding="utf-8"?>
<!-- Generator: Adobe Illustrator 24.0.1, SVG Export Plug-In . SVG Version: 6.00 Build 0)  -->
<svg version="1.1" id="Layer_1" xmlns="http://www.w3.org/2000/svg" xmlns:xlink="http://www.w3.org/1999/xlink" x="0px" y="0px"
	 viewBox="0 0 1080 1080" style="enable-background:new 0 0 1080 1080;" xml:space="preserve">
<style type="text/css">
	.st0{fill:#FFFFFF;}
	.st1{opacity:0.7;fill:url(#SVGID_1_);}
	.st2{opacity:0.7;fill:url(#SVGID_2_);}
	.st3{opacity:0.7;fill:url(#SVGID_3_);}
	.st4{opacity:0.7;fill:url(#SVGID_4_);}
	.st5{opacity:0.7;fill:url(#SVGID_5_);}
	.st6{opacity:0.7;fill:url(#SVGID_6_);}
	.st7{opacity:0.7;fill:url(#SVGID_7_);}
	.st8{opacity:0.7;fill:url(#SVGID_8_);}
	.st9{opacity:0.7;fill:url(#SVGID_9_);}
	.st10{opacity:0.7;fill:url(#SVGID_10_);}
	.st11{opacity:0.7;fill:url(#SVGID_11_);}
	.st12{opacity:0.7;fill:url(#SVGID_12_);}
</style>
<g>
	<g>
		<path class="st0" d="M248.77,887.47c0-26.5-0.02-53.16,0-79.82c0.09-90.37,53.21-153.3,142.08-168.4c0.89-0.15,1.67-0.93,4.1-2.34
			c-44.14-54.84-60.73-116.22-40.96-184.98c12.91-44.91,39.39-80.3,78.07-106.53c75.65-51.29,178.24-41.53,243.98,22.58
			c59.86,58.38,89.13,170.31,8.88,269.55c8.23,1.85,15.78,3.46,23.29,5.26c69.97,16.75,120.96,79,122.79,150.91
			c0.8,31.25,0.13,62.54,0.13,94.01c33.43-6.78,62.8-43.39,63.99-81.64c1.26-40.4,0.56-80.86,0.61-121.29
			c0.06-46.5-0.23-93.01,0.12-139.51c0.2-27.33,20.25-43.51,43.12-35.63c13.87,4.78,21.72,16.49,21.9,34.57
			c0.32,31.34,0.1,62.68,0.11,94.01c0,51.05,0.18,102.1-0.04,153.15c-0.44,99.38-69.76,169.2-168.9,169.38
			c-167.85,0.31-335.7,0.27-503.55,0.01c-99.31-0.15-169.19-69.82-169.35-168.9c-0.28-167.81-0.26-335.62-0.01-503.44
			c0.15-99.3,69.74-168.91,168.94-169.27c81.9-0.3,163.81-0.16,245.71,0.01c24.48,0.05,40.11,14.63,38.41,34.86
			c-1.54,18.3-15.37,30.04-37.04,30.18c-45.5,0.3-91,0.1-136.5,0.1c-37.41,0-74.83-0.17-112.24,0.04
			c-61.57,0.35-101.95,40.13-102.03,101.33c-0.23,169.83-0.06,339.67-0.09,509.5c-0.01,42,18.81,72.31,56.23,91.18
			c1.34,0.68,2.75,1.31,4.21,1.63C245.62,888.22,246.64,887.79,248.77,887.47z M314.15,894.67c151.17,0,301.09,0,451.8,0
			c0-35.69,2.33-70.62-0.55-105.11c-4.28-51.23-43.59-87.01-95.38-87.66c-86.44-1.08-172.91-1-259.35-0.06
			c-51.85,0.56-91.58,36.04-95.96,87.05C311.75,823.41,314.15,858.39,314.15,894.67z M540.39,378.56
			c-72.08,0.05-130.25,58.2-129.97,129.93c0.27,70.72,59.01,128.77,130.02,128.52c71.13-0.26,129.28-58.52,129.14-129.38
			C669.45,436.29,611.61,378.51,540.39,378.56z"/>
		<path class="st0" d="M750.16,317.87c23.49,22.88,47.56,45.2,70.28,68.82c18.8,19.54,10.67,49.89-14.85,54.11
			c-9.44,1.56-23.15-2.29-29.98-8.82c-43.48-41.57-85.8-84.35-128-127.23c-14.62-14.86-14.49-32.46,0.05-47.2
			c42.26-42.82,84.82-85.35,127.66-127.59c13.84-13.65,33.62-13.2,46.19-0.37c12.81,13.09,12.95,31.78-1.05,46.21
			c-22.87,23.57-46.47,46.42-73.19,72.99c8.49,0,13.01,0,17.53,0c53.6,0,107.2-0.23,160.79,0.11c25.62,0.16,41.48,21.63,32.71,43.77
			c-5.94,15-17.97,20.69-33.71,20.63c-52.59-0.18-105.17-0.06-157.76-0.05c-4.86,0-9.72,0-14.58,0
			C751.55,314.79,750.86,316.33,750.16,317.87z"/>
	</g>
</g>
</svg>
