<?xml version="1.0" encoding="utf-8"?>
<!-- Generator: Adobe Illustrator 24.0.1, SVG Export Plug-In . SVG Version: 6.00 Build 0)  -->
<svg version="1.1" id="Layer_1" xmlns="http://www.w3.org/2000/svg" xmlns:xlink="http://www.w3.org/1999/xlink" x="0px" y="0px"
	 viewBox="0 0 1080 1080" style="enable-background:new 0 0 1080 1080;" xml:space="preserve">
<style type="text/css">
	.st0{fill:#FFFFFF;}
	.st1{opacity:0.7;fill:url(#SVGID_1_);}
	.st2{opacity:0.7;fill:url(#SVGID_2_);}
	.st3{opacity:0.7;fill:url(#SVGID_3_);}
	.st4{opacity:0.7;fill:url(#SVGID_4_);}
	.st5{opacity:0.7;fill:url(#SVGID_5_);}
	.st6{opacity:0.7;fill:url(#SVGID_6_);}
	.st7{opacity:0.7;fill:url(#SVGID_7_);}
	.st8{opacity:0.7;fill:url(#SVGID_8_);}
	.st9{opacity:0.7;fill:url(#SVGID_9_);}
	.st10{opacity:0.7;fill:url(#SVGID_10_);}
	.st11{opacity:0.7;fill:url(#SVGID_11_);}
	.st12{opacity:0.7;fill:url(#SVGID_12_);}
</style>
<g>
	<g>
		<path style="fill: #000;" class="st0" d="M365.04,522.34c0-19.76-0.63-38.69,0.19-57.55c0.72-16.49,0.89-33.5,5.14-49.24
			c11.93-44.15,40.16-74.97,82.33-92.86c2.17-0.92,4.38-1.76,6.53-2.73c0.5-0.22,0.83-0.82,1.24-1.24
			c-60.13-54.48-52.41-136.67-5.95-181.62c47.48-45.95,122.75-46.22,170.22-0.75c47.11,45.12,55.14,127.39-5.11,182.33
			c9.69,4.92,19.9,9.04,28.97,14.92c43.86,28.45,65.91,69.13,66.34,121.43c0.16,18.96,0.03,37.93,0.03,56.9c0,3.19,0,6.38,0,10.42
			c4.51,0,8,0,11.48,0c64.28,0,128.56-0.02,192.84,0.01c36.74,0.02,58.13,21.25,58.14,57.74c0.02,124.76,0.01,249.52,0,374.28
			c0,17.92-5.32,23.2-23.33,23.2c-276.08,0.01-552.15,0.01-828.23,0c-17.98,0-23.29-5.29-23.29-23.22
			c-0.01-124.76-0.02-249.52,0-374.28c0.01-36.47,21.41-57.7,58.16-57.72c64.28-0.03,128.56-0.01,192.84-0.01
			C357.06,522.34,360.54,522.34,365.04,522.34z M942.04,942.1c0.2-2.93,0.42-4.69,0.42-6.46c0.02-118.84,0.05-237.69-0.02-356.53
			c-0.01-15.9-6.01-21.47-22.44-21.47c-253.29-0.01-506.58-0.01-759.87,0c-17.12,0-22.59,5.54-22.59,23.11
			c-0.03,117.36-0.02,234.72,0.01,352.09c0,3.11,0.32,6.22,0.48,9.27C406.57,942.1,673.96,942.1,942.04,942.1z M399.46,521.85
			c94.15,0,186.95,0,280.51,0c0-25.28,1.18-50.14-0.24-74.86c-3.23-56.24-47.36-98.24-103.32-99.32
			c-24.86-0.48-49.75-0.49-74.61,0.04c-43,0.91-80.85,28.42-95.33,69.01C394.25,450.99,402.3,486.46,399.46,521.85z M627.31,224.4
			c-0.19-48.13-38.9-86.78-87.09-86.95c-48.43-0.17-87.52,38.84-87.54,87.38c-0.02,48.38,39.22,87.61,87.53,87.51
			C588.49,312.24,627.5,272.85,627.31,224.4z"/>
		<path style="fill: #000;" class="st0" d="M540.06,592.55c113.74,0,227.49,0,341.23,0c21.77,0,26.38,4.68,26.38,26.7c0,88.01,0.01,176.02,0,264.03
			c0,18.75-5.74,24.56-24.29,24.56c-228.97,0.01-457.94,0.01-686.91,0c-18.2,0-24.14-5.86-24.15-23.81
			c-0.01-89.49-0.02-178.98,0-268.48c0-17.1,5.82-22.99,22.94-22.99C310.2,592.54,425.13,592.55,540.06,592.55z M872.05,628
			c-221.94,0-442.97,0-664.02,0c0,81.71,0,162.75,0,244.11c221.53,0,442.56,0,664.02,0C872.05,790.61,872.05,709.57,872.05,628z"/>
		<path style="fill: #000;" class="st0" d="M539.94,662.62c44.69,0,89.37,0,134.06,0.01c2.96,0,5.96-0.17,8.86,0.27c8.18,1.27,14.34,8.46,14.59,16.65
			c0.24,7.96-4.88,15.18-12.8,17.05c-3.97,0.94-8.2,1.02-12.32,1.02c-88.19,0.05-176.38,0.04-264.57,0.03
			c-3.25,0-6.54,0.09-9.74-0.38c-9.41-1.39-15.71-8.69-15.51-17.59c0.21-9.18,7.42-16.37,17.14-16.99c2.36-0.15,4.73-0.06,7.1-0.06
			C451.16,662.62,495.55,662.62,539.94,662.62z"/>
		<path style="fill: #000;" class="st0" d="M540.95,802.72c43.79,0,87.58,0,131.38,0.01c2.96,0,5.93-0.07,8.87,0.2c9.33,0.85,16.05,7.87,16.25,16.82
			c0.22,9.25-6.61,16.65-16.4,17.57c-2.94,0.28-5.91,0.22-8.87,0.22c-88.18,0.01-176.35,0.01-264.53-0.01
			c-3.54,0-7.14,0.07-10.62-0.45c-8.64-1.29-14.76-8.86-14.48-17.47c0.27-8.32,6.33-15.34,14.62-16.49
			c3.49-0.48,7.08-0.38,10.63-0.38C452.18,802.71,496.57,802.72,540.95,802.72z"/>
		<path style="fill: #000;" class="st0" d="M539.74,767.6c-27.85,0-55.69,0.04-83.54-0.02c-13.27-0.03-21.09-6.62-21.08-17.52
			c0.02-10.77,7.97-17.54,21.15-17.55c55.99-0.06,111.97-0.08,167.96,0.02c14.56,0.03,23.64,10.43,20.03,22.43
			c-2.43,8.09-9.04,12.58-19.22,12.61C596.61,767.65,568.17,767.59,539.74,767.6z"/>
	</g>
</g>
</svg>
