<?xml version="1.0" encoding="utf-8"?>
<!-- Generator: Adobe Illustrator 24.0.1, SVG Export Plug-In . SVG Version: 6.00 Build 0)  -->
<svg version="1.1" id="Layer_1" xmlns="http://www.w3.org/2000/svg" xmlns:xlink="http://www.w3.org/1999/xlink" x="0px" y="0px"
	 viewBox="0 0 1080 1080" style="enable-background:new 0 0 1080 1080;" xml:space="preserve">
<style type="text/css">
	.st0{fill:#FFFFFF;}
	.st1{opacity:0.7;fill:url(#SVGID_1_);}
	.st2{opacity:0.7;fill:url(#SVGID_2_);}
	.st3{opacity:0.7;fill:url(#SVGID_3_);}
	.st4{opacity:0.7;fill:url(#SVGID_4_);}
	.st5{opacity:0.7;fill:url(#SVGID_5_);}
	.st6{opacity:0.7;fill:url(#SVGID_6_);}
	.st7{opacity:0.7;fill:url(#SVGID_7_);}
	.st8{opacity:0.7;fill:url(#SVGID_8_);}
	.st9{opacity:0.7;fill:url(#SVGID_9_);}
	.st10{opacity:0.7;fill:url(#SVGID_10_);}
	.st11{opacity:0.7;fill:url(#SVGID_11_);}
	.st12{opacity:0.7;fill:url(#SVGID_12_);}
</style>
<g>
	<g>
		<path class="st0" d="M449.71,839.72c0-40.29,0-79.49,0-119.85c-3.9,0-7.53,0-11.16,0c-98.95,0-197.89,0.01-296.84,0
			c-33.72,0-51.25-17.59-51.26-51.4c-0.01-130.76-0.01-261.53,0-392.29c0-33.01,17.81-50.69,50.99-50.71c22.46-0.01,44.92,0,68.13,0
			c0,9.76,0,19.23,0,29.96c-13.71,0-27.63,0-41.55,0c-9.99,0-19.98-0.1-29.96,0.03c-12.18,0.16-17.5,5.56-17.62,17.9
			c-0.12,12.79-0.03,25.59-0.03,38.39c0,118.59,0,237.18,0,355.77c0,18.38,4.03,22.37,22.58,22.37c264.69,0,529.38,0,794.08,0
			c18.42,0,22.46-4.04,22.46-22.52c0-129.83,0-259.65,0-389.48c0-18.46-4.01-22.46-22.49-22.46c-22.1-0.01-44.2,0-66.85,0
			c0-9.93,0-19.17,0-29.27c1.99-0.21,4.34-0.66,6.69-0.66c22.16-0.05,44.32-0.17,66.48,0.01c26.82,0.21,46.07,19.29,46.09,46.16
			c0.12,133.88,0.11,267.77,0.01,401.65c-0.02,27.74-19.36,46.49-47.65,46.51c-99.88,0.07-199.77,0.03-299.65,0.03
			c-3.7,0-7.39,0-11.68,0c0,40.05,0,79.47,0,119.85c22.63,0,45.01-0.01,67.39,0c17.76,0.01,21.9,4.19,21.91,22.11
			c0.01,16.54,0.09,33.08-0.03,49.62c-0.09,12.77-5.45,18.13-18.35,18.13c-107.69,0.04-215.37,0.05-323.06,0
			c-12.79-0.01-18.09-5.43-18.16-18.32c-0.1-17.79-0.1-35.58,0-53.37c0.08-12.79,5.43-18.1,18.32-18.15
			C401.91,839.66,425.3,839.72,449.71,839.72z M480.5,839.05c40.12,0,79.54,0,118.98,0c0-39.87,0-79.06,0-118.61
			c-14.91,0-29.36,0-44.53,0c0,14.85,0.22,29.15-0.07,43.43c-0.22,10.52-8.52,17.73-17.68,15.55c-8.45-2.02-12.25-7.89-12.21-16.49
			c0.06-14.21,0.02-28.42,0.02-42.59c-15.61,0-29.84,0-44.51,0C480.5,759.99,480.5,799.18,480.5,839.05z M689.41,870.16
			c-100.19,0-199.29,0-298.68,0c0,9.93,0,19.39,0,28.85c99.91,0,199.23,0,298.68,0C689.41,889.14,689.41,879.9,689.41,870.16z"/>
		<path class="st0" d="M839.67,570.26c10.57,0,19.83,0,29.51,0c0,9.93,0,19.17,0,29.09c-219.23,0-438.45,0-658.26,0
			c0-9.42,0-18.88,0-29.04c9.5,0,18.76,0,29.38,0c0-4.28,0-7.87,0-11.47c0-119.21-0.01-238.42,0-357.63
			c0-32.98,17.81-50.63,51.05-50.64c63.67-0.01,127.35,0.3,191.01-0.17c21.47-0.16,40.82,4.15,57.73,19.95
			c19.74-20.2,44.91-20.12,70.54-19.93c59.61,0.46,119.23,0.13,178.84,0.15c32.36,0.01,50.18,17.96,50.19,50.57
			c0.01,118.9,0.01,237.79,0.01,356.69C839.67,561.52,839.67,565.21,839.67,570.26z M525,345.13c0-4.22,0-7.58,0-10.95
			c0-41.2-0.55-82.4,0.31-123.58c0.29-13.69-6.16-21.25-16.99-25.92c-6.36-2.74-13.84-3.95-20.83-3.98
			c-65.24-0.29-130.48-0.18-195.71-0.17c-17.2,0-21.51,4.32-21.51,21.55c-0.01,119.22,0,238.43,0,357.65c0,3.29,0,6.57,0,9.86
			c85.51,0,169.67,0,254.85,0c0-64.85,0-129.24,0-193.61c10.5,0,19.97,0,30.11,0c0,64.86,0,129.03,0,193.48
			c85.08,0,169.45,0,254.48,0c0-3.34,0-6.09,0-8.85c0-119.84,0.01-239.68-0.01-359.53c0-15.89-4.69-20.55-20.65-20.55
			c-65.55-0.02-131.1-0.01-196.65,0c-1.87,0-3.75-0.03-5.62,0.07c-20.4,1.04-31.81,12.83-31.81,32.88c0,40.57,0,81.14,0,121.71
			c0,3.27,0,6.54,0,9.94C544.47,345.13,535.45,345.13,525,345.13z"/>
		<path class="st0" d="M150.81,599.52c0-9.72,0-18.93,0-28.81c9.52,0,18.96,0,28.98,0c0,9.44,0,18.87,0,28.81
			C170.32,599.52,161.1,599.52,150.81,599.52z"/>
		<path class="st0" d="M899.96,599.29c0-9.7,0-18.91,0-28.68c9.78,0,19.22,0,29.14,0c0,9.52,0,18.73,0,28.68
			C919.8,599.29,910.35,599.29,899.96,599.29z"/>
		<path class="st0" d="M165.3,285.14c0.14,8.09-6.55,15.02-14.66,15.16c-8.1,0.14-15.01-6.54-15.15-14.67
			c-0.14-8.14,6.5-15.01,14.65-15.15C158.26,270.34,165.15,277.01,165.3,285.14z"/>
		<path class="st0" d="M495.03,375.29c0,48.06,0.01,96.13-0.01,144.19c-0.01,15.92-4.69,20.6-20.6,20.6
			c-51.19,0.02-102.39,0.02-153.58,0c-15.92-0.01-20.59-4.68-20.6-20.61c-0.01-96.13-0.01-192.25,0-288.38
			c0-15.93,4.67-20.59,20.6-20.6c51.19-0.02,102.39-0.02,153.58,0c15.92,0.01,20.6,4.68,20.6,20.6
			C495.05,279.16,495.03,327.22,495.03,375.29z M359.51,509.72c0-70.17,0-139.51,0-208.89c-9.91,0-19.15,0-28.79,0
			c0,69.79,0,139.14,0,208.89C340.45,509.72,349.68,509.72,359.51,509.72z M464.64,241.1c-45.14,0-89.52,0-133.67,0
			c0,10.12,0,19.58,0,28.83c44.92,0,89.09,0,133.67,0C464.64,260.23,464.64,250.99,464.64,241.1z M464.64,301.03
			c-25.17,0-49.59,0-73.74,0c0,10.12,0,19.58,0,28.82c24.95,0,49.14,0,73.74,0C464.64,320.15,464.64,310.92,464.64,301.03z
			 M464.67,360.77c-25.25,0-49.44,0-73.97,0c0,9.91,0,19.36,0,28.88c24.97,0,49.39,0,73.97,0
			C464.67,379.79,464.67,370.57,464.67,360.77z M464.64,420.89c-25.17,0-49.58,0-73.74,0c0,10.12,0,19.58,0,28.82
			c24.95,0,49.14,0,73.74,0C464.64,440,464.64,430.77,464.64,420.89z M464.57,509.73c0-10.29,0-19.52,0-29c-24.91,0-49.32,0-73.76,0
			c0,10.02,0,19.47,0,29C415.66,509.73,439.85,509.73,464.57,509.73z"/>
		<path class="st0" d="M704.38,390.91c0,9.91,0,19.14,0,28.84c-39.6,0-78.77,0-118.69,0c0-9.26,0-18.72,0-28.84
			C624.86,390.91,664.25,390.91,704.38,390.91z"/>
		<path class="st0" d="M689.41,271.08c0,9.86,0,19.09,0,28.81c-34.59,0-68.76,0-103.71,0c0-9.21,0-18.67,0-28.81
			C619.83,271.08,654.23,271.08,689.41,271.08z"/>
		<path class="st0" d="M660.08,359.53c0-9.79,0-18.79,0-28.49c34.61,0,69,0,104.04,0c0,9.31,0,18.76,0,28.49
			C729.36,359.53,694.75,359.53,660.08,359.53z"/>
		<path class="st0" d="M689.42,510.79c0,9.85,0,19.09,0,28.8c-34.59,0-68.76,0-103.71,0c0-9.21,0-18.67,0-28.8
			C619.83,510.79,654.23,510.79,689.42,510.79z"/>
		<path class="st0" d="M764.33,211.14c0,9.89,0,19.12,0,28.82c-29.6,0-58.78,0-88.73,0c0-9.24,0-18.7,0-28.82
			C704.76,211.14,734.16,211.14,764.33,211.14z"/>
		<path class="st0" d="M675.26,479.5c0-9.86,0-19.09,0-28.81c29.59,0,58.78,0,88.73,0c0,9.22,0,18.68,0,28.81
			C734.85,479.5,705.45,479.5,675.26,479.5z"/>
		<path class="st0" d="M585.36,479.5c0-9.88,0-19.1,0-28.81c19.61,0,38.81,0,58.76,0c0,9.23,0,18.69,0,28.81
			C624.97,479.5,605.55,479.5,585.36,479.5z"/>
		<path class="st0" d="M720.23,299.73c0-9.91,0-19.14,0-28.83c14.62,0,28.83,0,43.78,0c0,9.27,0,18.72,0,28.83
			C749.81,299.73,735.38,299.73,720.23,299.73z"/>
		<path class="st0" d="M585.12,359.74c0-9.93,0-18.94,0-28.67c14.58,0,29.02,0,44.12,0c0,9.21,0,18.65,0,28.67
			C614.78,359.74,600.35,359.74,585.12,359.74z"/>
		<path class="st0" d="M720.28,510.51c14.78,0,28.98,0,43.83,0c0,9.58,0,19.02,0,29.02c-14.5,0-28.92,0-43.83,0
			C720.28,530.01,720.28,520.79,720.28,510.51z"/>
		<path class="st0" d="M615.35,239.93c0-9.62,0-18.84,0-28.75c9.42,0,18.86,0,28.92,0c0,9.35,0,18.79,0,28.75
			C634.9,239.93,625.68,239.93,615.35,239.93z"/>
		<path class="st0" d="M735.12,419.49c0-9.62,0-18.84,0-28.64c9.76,0,19.19,0,29.14,0c0,9.44,0,18.66,0,28.64
			C755.02,419.49,745.57,419.49,735.12,419.49z"/>
	</g>
</g>
</svg>
