<?xml version="1.0" encoding="utf-8"?>
<!-- Generator: Adobe Illustrator 24.0.1, SVG Export Plug-In . SVG Version: 6.00 Build 0)  -->
<svg version="1.1" id="Layer_1" xmlns="http://www.w3.org/2000/svg" xmlns:xlink="http://www.w3.org/1999/xlink" x="0px" y="0px"
	 viewBox="0 0 1080 1080" style="enable-background:new 0 0 1080 1080;" xml:space="preserve">
<style type="text/css">
	.st0{fill:#FFFFFF;}
	.st1{opacity:0.7;fill:url(#SVGID_1_);}
	.st2{opacity:0.7;fill:url(#SVGID_2_);}
	.st3{opacity:0.7;fill:url(#SVGID_3_);}
	.st4{opacity:0.7;fill:url(#SVGID_4_);}
	.st5{opacity:0.7;fill:url(#SVGID_5_);}
	.st6{opacity:0.7;fill:url(#SVGID_6_);}
	.st7{opacity:0.7;fill:url(#SVGID_7_);}
	.st8{opacity:0.7;fill:url(#SVGID_8_);}
	.st9{opacity:0.7;fill:url(#SVGID_9_);}
	.st10{opacity:0.7;fill:url(#SVGID_10_);}
	.st11{opacity:0.7;fill:url(#SVGID_11_);}
	.st12{opacity:0.7;fill:url(#SVGID_12_);}
</style>
<path class="st0" d="M583.05,328.58c5.87-34.06,22.69-59.3,51.19-76.78c2.18-1.34,4.05-4.89,4.2-7.51c0.51-9.06,0.2-18.16,0.2-27.66
	c-2.68-0.71-5.15-1.28-7.56-2.01c-12.29-3.72-20.22-13.78-20.55-26.62c-0.25-9.68-0.29-19.39,0.01-29.07
	c0.47-15.47,12.08-27.43,27.51-27.61c28.48-0.33,56.96-0.31,85.44-0.02c15.85,0.16,27.41,12.19,27.87,28.18
	c0.2,6.75,0.05,13.51,0.05,20.26c0,23.18-5.59,30.64-28.18,37.16c0,9.22-0.26,18.61,0.18,27.96c0.11,2.38,1.99,5.24,3.92,6.85
	c6.74,5.61,14.38,10.23,20.7,16.25c6.32,6.02,11.47,13.27,17.75,20.71c2.03-2.71,3.83-6.01,6.44-8.46
	c9.99-9.38,20.37-18.34,30.28-27.79c2.39-2.28,4.82-5.75,5.06-8.84c0.68-8.74,0.24-17.58,0.24-25.39
	c-6.95-3.71-14.11-6.04-19.32-10.6c-13.22-11.6-13.51-56.32-0.19-67.94c5.11-4.45,12.92-7.86,19.61-8.07
	c28.16-0.88,56.36-0.57,84.55-0.29c15.94,0.16,27.56,12.04,28.05,28.01c0.22,7.04,0.06,14.09,0.05,21.14
	c0,22.41-6.2,30.52-28.18,36.3c0,9.5-0.22,19.17,0.18,28.82c0.09,2.1,1.91,4.9,3.76,6.02c28.88,17.47,45.82,42.98,51.49,75.93
	c23.27,5.75,29.13,13.43,29.14,37.84c0,4.4,0,8.81,0,13.21c-0.01,21.61-6.65,30.1-28.19,35.43c0,3.04,0,6.23,0,9.43
	c0,65.49,0.02,130.97-0.01,196.46c-0.01,29.96-17.02,46.99-46.93,47.01c-44.33,0.03-88.67-0.09-133,0.05
	c-18.42,0.06-32.12-7.42-41.04-23.72c-1.05-1.92-3.59-4.29-5.46-4.31c-27.54-0.28-55.08-0.19-83.13-0.19c0,37.55,0,74.43,0,112.76
	c9.54,0,19.45-0.79,29.2,0.16c20.97,2.05,36.87-3.43,53.6-18.73c46.68-42.72,114.29-49.41,169.95-21.06
	c55.94,28.49,89.25,87.66,84.77,150.57c-0.02,0.25-0.25,0.49-0.88,1.67c-8.69,0-17.94,0-27.64,0
	c-5.38,36.99-22.15,66.65-51.72,88.43c-23.47,17.29-50.02,25.24-79.2,24.45c-48.5-1.3-109.6-35.78-121.94-112.19
	c-145.06,0-290.22,0-436.43,0c12.45,19.69,17.01,40.21,10.09,62.41c-4.8,15.39-13.76,27.77-26.93,37.02
	c-26.54,18.63-61.76,16.76-86.44-4.48c-26.81-23.08-30.95-55.94-11.22-95.49c-4.76,0-8.97,0.12-13.17-0.02
	c-15.95-0.54-27.8-12.13-28.05-28.04c-0.3-18.79-0.28-37.59-0.01-56.38c0.23-16.36,12.16-28.07,28.67-28.26
	c19.04-0.22,38.09-0.05,56.5-0.05c0-46.99,0-93.28,0-138.2c-7.63-4.08-14.81-6.4-20-10.98c-13.22-11.65-13.5-56.33-0.17-67.94
	c5.11-4.45,12.78-6.64,19.66-8.16c6.05-1.33,12.62-0.28,20.17-0.28c-1.71-4.17-2.85-7.09-4.1-9.96
	c-31.77-73.14-63.7-146.21-95.26-219.43c-17.47-40.54,11.14-83.17,54.18-80.52c23.89,1.47,40.11,14.56,49.6,36.47
	c28.08,64.83,56.3,129.6,84.47,194.39c10.52,24.2,21.17,48.34,31.47,72.63c1.97,4.64,4.25,6.7,9.58,6.56
	c15.23-0.39,30.49-0.14,47.04-0.14c0-3.47,0-6.56,0-9.65c0-49.04-0.53-98.09,0.31-147.12c0.26-15.21-3.24-27.34-13-39.17
	c-24.26-29.41-42.86-62.25-55.09-98.54c-10.68-31.67-16.49-64.15-16.74-97.58c-0.15-19.01,11.52-30.81,30.56-30.83
	c64.3-0.06,128.6-0.07,192.9,0.01c18.58,0.02,30.39,11.83,30.12,30.38c-0.99,68.47-21.23,130.84-63.34,184.77
	c-15.74,20.15-22.65,40.03-21.67,65.53c1.8,46.9,0.51,93.91,0.51,142.21c8.72,0,17.1-0.04,25.48,0.01
	c19.3,0.12,30.71,11.42,30.89,30.58c0.06,6.46,0.01,12.92,0.01,19.38c-0.01,21.64-6.7,30.21-28.71,35.56c0,46.02,0,92.34,0,139.33
	c17.77,0,36.63,0,56.19,0c0-111.89,0-224.18,0-334.44c-7.81-5.26-16.9-8.6-21.29-15.11c-4.47-6.63-4.88-16.31-6.02-24.8
	c-0.89-6.63-0.36-13.49-0.11-20.24c0.57-15.45,12.16-27.08,27.61-27.55C563.2,328.34,572.85,328.58,583.05,328.58z M681.52,780.26
	c-182.8,0-366.28,0-549.58,0c0,18.91,0,37.2,0,55.31c178.76,0,356.81,0,533.68,0C671.06,816.66,676.28,798.51,681.52,780.26z
	 M920.54,413.47c-20.34,0-39.62,0-59.49,0c-6.35,25.32-12.61,50.56-19.03,75.75c-6.55,25.71-20.77,36.67-47.28,36.7
	c-14.26,0.01-28.52,0-43.33,0c0,31.9-0.02,62.66,0.01,93.42c0.01,14.94,4.42,19.34,19.39,19.35c43.42,0.02,86.83,0.02,130.25,0
	c15.02-0.01,19.48-4.4,19.48-19.27c0.02-59.27,0.01-118.54,0.01-177.8C920.54,432.55,920.54,423.48,920.54,413.47z M469.51,610.92
	c-85.12,0-168.98,0-253.58,0c0,42.91-0.18,85.41,0.18,127.9c0.06,7.22,5.35,11.68,12.64,12.44c4.83,0.5,9.76,0.1,15.57,0.1
	c0-38.05,0-75.16,0-112.22c9.67,0,18.36,0,28.01,0c0,37.54,0,74.64,0,111.66c19.27,0,37.57,0,56.51,0c0-37.56,0-74.45,0-111.53
	c9.56,0,18.46,0,28.32,0c0,37.68,0,74.78,0,111.7c19.06,0,37.15,0,56.2,0c0-37.58,0-74.69,0-111.57c9.89,0,18.8,0,28.31,0
	c0,37.61,0,74.51,0,112.06c2.64,0,4.64-0.02,6.63,0c17.17,0.17,21.19-3.83,21.2-21.12c0.01-14.39,0-28.78,0-43.17
	C469.51,661.98,469.51,636.78,469.51,610.92z M696.94,835.65c83.29,0,166.58,0,249.87,0c-0.91-45.11-45.91-112.53-125.39-112.27
	C741.96,723.64,697.54,791.5,696.94,835.65z M639.38,413.5c0,27.79,0,55.68,0,84.16c53.96,0,107.6,0.21,161.23-0.42
	c4.2-0.05,10.9-5.25,12.08-9.32c7.08-24.42,12.89-49.21,19.27-74.43C767.37,413.5,703.74,413.5,639.38,413.5z M163.79,350.52
	c0.09,1.33-0.02,1.96,0.19,2.45c24.35,56.19,48.7,112.39,73.2,168.52c0.78,1.79,3.02,4.18,4.62,4.2
	c19.17,0.29,38.34,0.19,58.66,0.19c-28.73-66.07-56.85-130.75-85.21-195.98C197.6,336.97,180.59,343.78,163.79,350.52z
	 M948.33,357.37c-131.75,0-262.76,0-393.52,0c0,9.54,0,18.44,0,27.12c131.53,0,262.33,0,393.52,0
	C948.33,375.34,948.33,366.65,948.33,357.37z M609.85,751.06c0-112.93,0-225.17,0-337.21c-9.52,0-18.43,0-27.14,0
	c0,112.74,0,224.77,0,337.21C591.84,751.06,600.53,751.06,609.85,751.06z M188,581.67c103.61,0,206.43,0,309.27,0
	c0-9.33,0-18.02,0-27.08c-103.25,0-206.07,0-309.27,0C188,563.75,188,572.44,188,581.67z M725.11,864.54
	c3.31,47.17,50.65,86.06,101.46,84.16c46.26-1.73,91.79-43.31,91.72-84.12c-9.02,0-18.04,0-26.95,0
	c-12.57,35.58-35.07,54.6-65.83,55.96c-14.78,0.65-28.48-2.91-41-10.74c-16.95-10.6-27.01-26.27-31.91-45.26
	C743.19,864.54,734.45,864.54,725.11,864.54z M749.61,328.22c-0.59-2.68-0.96-4.97-1.59-7.17c-4.66-16.36-14.39-29.07-27.21-40.11
	c-10.96-9.44-23.5-9.11-36.43-8.79c-5.57,0.14-11.16-0.08-16.73,0.06c-4.36,0.1-9.33-0.79-12.98,0.96
	c-23.15,11.06-37.1,29.5-42.63,55.06C658.25,328.22,703.66,328.22,749.61,328.22z M918.1,328.18c0.82-0.73,1.64-1.45,2.46-2.18
	c-5.81-10.64-10.54-22.07-17.67-31.73c-11.04-14.97-25.35-24.83-45.7-22.29c-8.67,1.08-17.59,0.1-26.39,0.23
	c-2.57,0.04-5.45,0.07-7.66,1.17c-22.71,11.29-36.45,29.49-41.95,54.79C827.3,328.18,872.7,328.18,918.1,328.18z M440.69,525.53
	c0-56.62,0-112.47,0-168.36c-9.32,0-18.01,0-27.09,0c0,56.27,0,112.12,0,168.36C422.76,525.53,431.45,525.53,440.69,525.53z
	 M204,303.96c-6.23-14.28-11.96-27.42-17.69-40.55c-0.59-1.34-1.16-2.69-1.86-3.98c-6.77-12.49-21.53-18.36-34.5-13.73
	c-12.89,4.6-22.11,18.71-18,31.38c5.26,16.24,12.78,31.74,19.49,47.94C169.55,317.76,186.32,311.04,204,303.96z M497.46,131.51
	c-1.57,48.11-9.06,94.5-22.5,139.75c9.58,3,14.29-0.57,18.37-8.76c11.97-24.03,21.72-48.83,26.6-75.18
	c3.38-18.24,4.85-36.84,7.24-55.81C516.04,131.51,507.33,131.51,497.46,131.51z M379.62,271.28
	c-13.98-45.83-20.93-92.32-22.73-139.46c-10.04,0-18.96,0-28.36,0c0.51,46.64,11.78,89.79,32.6,130.75
	C365.32,270.81,370.07,274.12,379.62,271.28z M385.18,131.61c1.95,48.73,9.19,95.39,24.47,140.52c0.97-0.15,1.94-0.3,2.92-0.45
	c0-46.6,0-93.19,0-140.07C403.45,131.61,394.8,131.61,385.18,131.61z M442.25,131.65c0,47.29,0,93.79,0,140.29
	c0.85,0.09,1.71,0.18,2.56,0.28c15.18-45.38,22.7-92.15,24.36-140.56C459.75,131.65,451.09,131.65,442.25,131.65z M639.05,187.12
	c28.48,0,55.93,0,83.61,0c0-9.36,0-18.25,0-27.11c-28.22,0-55.88,0-83.61,0C639.05,169.31,639.05,178,639.05,187.12z M891.97,160.03
	c-28.43,0-56.09,0-83.77,0c0,9.32,0,18.01,0,27.08c28.08,0,55.73,0,83.77,0C891.97,177.96,891.97,169.27,891.97,160.03z
	 M639.07,553.62c28.09,0,55.74,0,83.55,0c0-9.39,0-18.28,0-27.06c-28.25,0-55.91,0-83.55,0
	C639.07,535.89,639.07,544.58,639.07,553.62z M639.04,610.04c28.48,0,55.93,0,83.62,0c0-9.35,0-18.24,0-27.13
	c-28.21,0-55.87,0-83.62,0C639.04,592.21,639.04,600.9,639.04,610.04z M162.01,894.31c-5.88,18.06,0.69,36.72,15.95,47.14
	c15.62,10.66,36.19,9.66,50.7-2.46c13.49-11.27,18.67-29.3,12.54-43.65C219.8,931.85,178.74,926.32,162.01,894.31z M385.3,300.8
	c6.83,9.1,12.73,17.34,19.12,25.17c1.34,1.64,4.51,2.42,6.87,2.48c10.54,0.26,21.09,0.2,31.63,0.04c2.18-0.03,5.25-0.27,6.38-1.66
	c6.67-8.19,12.9-16.76,19.9-26.02C440.48,300.8,413.66,300.8,385.3,300.8z M783.15,864.6c6.37,17.96,23,28.85,41.25,27.77
	c16.79-1,32.11-12.79,35.7-27.77C834.61,864.6,809.22,864.6,783.15,864.6z M694.55,243.58c0-9.7,0-18.37,0-27.25
	c-9.35,0-18.23,0-27.09,0c0,9.44,0,18.32,0,27.25C676.76,243.58,685.43,243.58,694.55,243.58z M836.37,243.37c9.56,0,18.43,0,27.1,0
	c0-9.51,0-18.4,0-27.13c-9.37,0-18.04,0-27.1,0C836.37,225.36,836.37,234.03,836.37,243.37z M215.57,864.7c-9.44,0-18.3,0-27.99,0
	c0.8,9.12-3.26,19.36,6.54,24.87c3.95,2.22,11.28,2.23,15.19-0.02C218.96,884,215.37,873.88,215.57,864.7z"/>
</svg>
