<?xml version="1.0" encoding="utf-8"?>
<!-- Generator: Adobe Illustrator 24.0.1, SVG Export Plug-In . SVG Version: 6.00 Build 0)  -->
<svg version="1.1" id="Layer_1" xmlns="http://www.w3.org/2000/svg" xmlns:xlink="http://www.w3.org/1999/xlink" x="0px" y="0px"
	 viewBox="0 0 1080 1080" style="enable-background:new 0 0 1080 1080;" xml:space="preserve">
<style type="text/css">
	.st0{fill:#FFFFFF;}
	.st1{opacity:0.7;fill:url(#SVGID_1_);}
	.st2{opacity:0.7;fill:url(#SVGID_2_);}
	.st3{opacity:0.7;fill:url(#SVGID_3_);}
	.st4{opacity:0.7;fill:url(#SVGID_4_);}
	.st5{opacity:0.7;fill:url(#SVGID_5_);}
	.st6{opacity:0.7;fill:url(#SVGID_6_);}
	.st7{opacity:0.7;fill:url(#SVGID_7_);}
	.st8{opacity:0.7;fill:url(#SVGID_8_);}
	.st9{opacity:0.7;fill:url(#SVGID_9_);}
	.st10{opacity:0.7;fill:url(#SVGID_10_);}
	.st11{opacity:0.7;fill:url(#SVGID_11_);}
	.st12{opacity:0.7;fill:url(#SVGID_12_);}
</style>
<g>
	<g>
		<path style="fill: #000;" class="st0" d="M893.07,85.55c5.11,1.24,10.27,2.29,15.31,3.76c27.9,8.13,44.69,31.09,44.77,61.88
			c0.4,154.98,0.72,309.96,0.98,464.95c0.17,102.04,0.22,204.08,0.19,306.12c0,7.94-0.16,16.11-1.91,23.79
			c-6.61,29.01-31.5,48.29-62.05,48.35c-69.52,0.13-139.03,0.04-208.55,0.05c-124.54,0-249.08,0.01-373.62,0
			c-42.62,0-68.48-25.87-68.48-68.54c0-110.32,0.04-220.64,0.07-330.96c0-3.4,0-6.8,0-12.13c-9.82,7.38-17.92,13.65-26.2,19.66
			c-19.02,13.81-39.27,16.58-59.7,4.06c-20.71-12.69-30.54-31.73-27.7-56.25c1.69-14.59,9.64-25.88,21.13-34.65
			c28.43-21.73,56.84-43.5,85.57-64.84c5.44-4.04,7.14-8.24,7.14-14.75c-0.04-94.65,0.09-189.29,0.35-283.94
			c0.08-31.59,18.34-55.89,47-63.21c4.81-1.23,9.69-2.23,14.53-3.33C498.94,85.55,696,85.55,893.07,85.55z M928.67,820.16
			c0-3.97,0-7.14,0-10.31c0.22-218.92,0.17-437.84,0.97-656.76c0.11-29.02-21.53-43.64-43.47-43.58
			c-192.62,0.51-385.24,0.29-577.87,0.3c-29.08,0-44.12,15.21-44.06,44.46c0.19,87.86,0.4,175.73,0.6,263.59
			c0.04,16.12,0.22,15.41,15.68,19.71c7.7,2.14,12.73,0.28,18.39-4.23c10.64-8.48,21.52-16.68,32.64-24.51
			c5.25-3.69,6.43-6.7,3.4-12.96c-17.35-35.79-22.06-73.59-14.06-112.38c19.97-96.86,106.3-156.47,205.42-142.61
			c96.2,13.46,166.39,109.76,149.19,205.37c-12.45,69.18-51.51,117.94-117.62,141.5c-66.1,23.56-126.97,10.17-180.68-35.1
			c-1.32-1.11-2.73-2.11-4.65-3.59c-15.24,11.55-30.36,22.85-45.22,34.51c-1.68,1.31-2.54,4.6-2.53,6.97
			c0.07,18.97-8.27,33.51-22.97,44.82c-10.08,7.76-20.03,15.72-30.44,23.01c-5,3.5-6.49,7.52-6.48,13.36
			c0.19,79.58,0.17,159.16,0.25,238.74c0,3.13,0.36,6.26,0.56,9.67C486.82,820.16,706.91,820.16,928.67,820.16z M928.34,846.07
			c-5.41,0-9.79,0-14.17,0c-211.47,0-422.94,0-634.41,0c-2.66,0-5.33,0.16-7.98-0.01c-4.99-0.31-6.71,1.96-6.68,6.85
			c0.16,26.32-0.39,52.65,0.29,78.95c0.55,21.33,15.37,35.63,36.66,37.05c2.36,0.16,4.73,0.11,7.1,0.11
			c191.95,0,383.9,0.01,575.85-0.04c4.71,0,9.49-0.27,14.1-1.14c15.27-2.89,28.44-15.42,28.96-30.74
			C929.05,907.3,928.34,877.45,928.34,846.07z M497.76,473.23c85.62-0.01,155.17-69.51,155.38-155.26
			c0.21-85.21-70.04-155.93-154.98-156.03c-86.11-0.1-155.77,69.44-155.91,155.65C342.11,404.05,411.25,473.24,497.76,473.23z
			 M269.47,460.1c-5.83,2.54-12.4,4.08-17.37,7.77c-30.14,22.42-60.05,45.15-89.74,68.16c-13.88,10.76-15.35,26.88-4.69,40.69
			c10.33,13.38,25.86,15.81,39.98,5.85c9.18-6.48,17.99-13.47,26.94-20.27c21.19-16.1,42.54-32.02,63.49-48.43
			c10.98-8.61,13.72-19.58,9.24-31.6C292.77,470.02,281.79,461.66,269.47,460.1z M314.88,460.01c0.97-0.29,1.63-0.32,2.05-0.65
			c12.22-9.2,24.45-18.39,36.54-27.76c0.7-0.54,0.85-3.28,0.34-3.62c-1.2-0.79-3.54-1.56-4.39-0.93
			c-12.12,8.84-24.1,17.87-35.99,27.02c-0.79,0.61-0.98,2.57-0.73,3.75C312.89,458.73,314.21,459.39,314.88,460.01z"/>
		<path style="fill: #000;" class="st0" d="M887.97,593.96c0,60.94,0.01,121.88-0.01,182.82c0,15.35-3.46,18.81-18.71,18.82
			c-26.92,0.02-53.85,0.04-80.77-0.01c-12.89-0.02-17.26-4.09-17.25-16.88c0.09-123.36,0.25-246.72,0.49-370.08
			c0.02-11.91,4.24-15.84,16.2-15.87c27.81-0.06,55.63-0.07,83.44,0c12.33,0.03,16.37,4.11,16.38,16.6
			c0.05,61.53,0.02,123.07,0.02,184.6C887.83,593.96,887.9,593.96,887.97,593.96z M862.69,769.77c0-4.19,0-7.39,0-10.59
			c0.04-85.47,0.08-170.94,0.13-256.42c0.01-25.43-0.21-50.87,0.2-76.3c0.12-7.18-2.36-9.14-9.18-8.97
			c-15.37,0.4-30.78,0.56-46.13-0.05c-8.34-0.33-11.14,1.9-11.11,10.71c0.36,110.61,0.31,221.22,0.4,331.83
			c0,3.12,0.36,6.25,0.58,9.78C819.37,769.77,840.25,769.77,862.69,769.77z"/>
		<path style="fill: #000;" class="st0" d="M623.18,670.02c0-36.37-0.03-72.75,0.02-109.12c0.02-12.81,4.22-17.12,16.93-17.16
			c27.51-0.09,55.01-0.09,82.52,0c12.69,0.04,17.14,4.4,17.16,17.13c0.11,72.45,0.15,144.91,0.11,217.36
			c-0.01,13.34-4.23,17.34-17.68,17.36c-27.51,0.04-55.01,0.05-82.52-0.01c-12.29-0.03-16.58-4.24-16.6-16.44
			c-0.06-36.37-0.02-72.75-0.02-109.12C623.12,670.02,623.15,670.02,623.18,670.02z M713.06,770.2c0.5-2.47,0.94-3.61,0.94-4.75
			c0.08-63.21,0.08-126.42,0.26-189.62c0.02-5.77-2.69-6.89-7.6-6.85c-15.95,0.14-31.92,0.53-47.85-0.15
			c-8.86-0.38-10.73,2.89-10.68,11.16c0.35,59.66,0.23,119.33,0.26,178.99c0,1.77-0.62,3.93,0.17,5.23c1.39,2.28,3.61,5.7,5.55,5.74
			C673.55,770.36,693,770.2,713.06,770.2z"/>
		<path style="fill: #000;" class="st0" d="M900.2,248.13c0.01,58.66-43.06,101.33-102.37,101.44c-59.33,0.1-103.32-43.33-103.2-101.88
			c0.12-58.65,43.88-101.41,103.64-101.29C857.43,146.53,900.19,189.21,900.2,248.13z M875.74,247.4
			c0.01-45.32-32.17-77.05-78.16-77.07c-45.78-0.02-78.55,32.18-78.47,77.1c0.08,45,32.8,77.19,78.53,77.27
			C843.44,324.78,875.73,292.83,875.74,247.4z"/>
		<path style="fill: #000;" class="st0" d="M591.39,732.61c0.01,15.96,0.12,31.93-0.03,47.89c-0.1,10.54-4.63,15.03-15.26,15.07
			c-28.68,0.11-57.36,0.11-86.03,0c-10.59-0.04-15.33-4.45-15.39-15.08c-0.21-32.22-0.19-64.44,0.02-96.66
			c0.07-10.59,4.64-15.12,15.41-15.2c28.68-0.23,57.36-0.24,86.03,0.02c11.16,0.1,15.15,4.67,15.22,16.09
			C591.46,700.68,591.39,716.64,591.39,732.61z M500.46,694.76c0,24.11-0.14,47.11,0.27,70.1c0.03,1.82,3.8,5.07,5.9,5.12
			c17.7,0.41,35.42,0.13,53.13,0.3c5.22,0.05,6.46-2.41,6.42-7.08c-0.15-15.94-0.05-31.88-0.04-47.82c0-6.7,0-13.4,0-20.63
			C543.85,694.76,522.78,694.76,500.46,694.76z"/>
		<path style="fill: #000;" class="st0" d="M426.23,585.34c-33.1,0-66.2,0.01-99.3-0.01c-2.95,0-5.93,0.04-8.85-0.28c-7.57-0.82-12.13-5.2-12.06-12.75
			c0.07-7.14,4.65-11.22,11.67-12.3c2.03-0.31,4.13-0.23,6.19-0.23c68.27-0.01,136.54-0.01,204.81,0.01c2.65,0,5.39-0.1,7.93,0.5
			c6.49,1.53,10.41,5.62,10.25,12.54c-0.16,6.86-4.01,10.98-10.74,12.01c-3.48,0.53-7.07,0.48-10.61,0.49
			C492.43,585.35,459.33,585.34,426.23,585.34z"/>
		<path style="fill: #000;" class="st0" d="M423.48,608.67c33.99,0,67.98-0.13,101.97,0.17c4.4,0.04,9.77,1.2,12.96,3.89
			c7.36,6.21,3.47,18.41-6.16,20.72c-2.82,0.67-5.87,0.5-8.82,0.5c-66.21,0.02-132.42,0.02-198.63,0.02c-1.77,0-3.55,0.07-5.32-0.05
			c-8.13-0.55-13.43-5.37-13.65-12.35c-0.23-7.24,5.3-12.73,13.89-12.79c28.97-0.2,57.93-0.1,86.9-0.11
			C412.25,608.66,417.87,608.66,423.48,608.67z"/>
		<path style="fill: #000;" class="st0" d="M356.8,705.6c11.53,0,23.07-0.14,34.6,0.05c9.74,0.16,15.08,4.67,15.31,12.36
			c0.24,8.04-5.36,13.2-15.37,13.29c-23.36,0.19-46.72,0.19-70.08,0c-9.78-0.08-15.78-5.59-15.47-13.34
			c0.3-7.46,6-12.16,15.53-12.31C333.14,705.46,344.97,705.6,356.8,705.6z"/>
		<path style="fill: #000;" class="st0" d="M356.6,682.38c-12.11,0-24.22,0.14-36.33-0.05c-8.73-0.14-14.29-5.09-14.46-12.28
			c-0.18-7.5,5.66-12.83,14.81-12.88c23.93-0.13,47.85-0.14,71.78,0.01c8.84,0.05,14.14,4.91,14.29,12.36
			c0.17,7.92-5.02,12.65-14.64,12.81C380.23,682.53,368.41,682.39,356.6,682.38z"/>
		<path style="fill: #000;" class="st0" d="M497.46,457.12c-76.97,0.03-138.77-61.72-138.76-138.64c0.01-77.19,61.54-138.86,138.46-138.78
			c77.49,0.09,139.73,62.03,139.55,138.9C636.52,395.21,574.32,457.09,497.46,457.12z M611.58,317.8
			c0.01-63.24-50.35-113.75-113.67-113.99c-63.48-0.25-114.56,50.64-114.53,114.12C383.42,381.42,434.24,432,498.02,432
			C560.86,432,611.57,381,611.58,317.8z"/>
		<path style="fill: #000;" class="st0" d="M760.16,247.71c0-12.72-0.11-25.44,0.03-38.15c0.16-13.8,8.52-19.08,20.32-12.46
			c22.69,12.73,45.27,25.68,67.68,38.9c11,6.49,10.77,17-0.41,23.61c-22.4,13.23-44.92,26.28-67.57,39.08
			c-11.23,6.34-19.99,1.02-20.19-11.94c-0.19-13.01-0.04-26.03-0.04-39.04C760.05,247.71,760.11,247.71,760.16,247.71z
			 M819.56,247.65c-12.48-7.21-22.96-13.27-34.27-19.81c0,13.84,0,25.88,0,39.52C796.95,260.65,807.28,254.71,819.56,247.65z"/>
	</g>
</g>
</svg>
