<?xml version="1.0" encoding="utf-8"?>
<!-- Generator: Adobe Illustrator 24.0.1, SVG Export Plug-In . SVG Version: 6.00 Build 0)  -->
<svg version="1.1" id="Layer_1" xmlns="http://www.w3.org/2000/svg" xmlns:xlink="http://www.w3.org/1999/xlink" x="0px" y="0px"
	 viewBox="0 0 1080 1080" style="enable-background:new 0 0 1080 1080;" xml:space="preserve">
<style type="text/css">
	.st0{fill:#FFFFFF;}
	.st1{opacity:0.7;fill:url(#SVGID_1_);}
	.st2{opacity:0.7;fill:url(#SVGID_2_);}
	.st3{opacity:0.7;fill:url(#SVGID_3_);}
	.st4{opacity:0.7;fill:url(#SVGID_4_);}
	.st5{opacity:0.7;fill:url(#SVGID_5_);}
	.st6{opacity:0.7;fill:url(#SVGID_6_);}
	.st7{opacity:0.7;fill:url(#SVGID_7_);}
	.st8{opacity:0.7;fill:url(#SVGID_8_);}
	.st9{opacity:0.7;fill:url(#SVGID_9_);}
	.st10{opacity:0.7;fill:url(#SVGID_10_);}
	.st11{opacity:0.7;fill:url(#SVGID_11_);}
	.st12{opacity:0.7;fill:url(#SVGID_12_);}
</style>
<g>
	<g>
		<path style="fill: #000;" class="st0" d="M871.11,346.27c-9.61,0-18.12,0-27.26,0c0-45.64,0-90.94,0-136.92c-32.33,0-64.03,0-96.9,0
			c0,2.85,0,5.89,0,8.93c0,32.19,0.03,64.37-0.01,96.56c-0.02,13.41-4.65,17.97-18.23,17.98c-33.91,0.03-67.82,0.04-101.73,0
			c-13.42-0.02-17.96-4.63-17.98-18.22c-0.03-31.9-0.01-63.8-0.01-95.7c0-3.1,0-6.19,0-9.76c-32.22,0-63.72,0-95.9,0
			c0,109.71,0,219.58,0,330.41c17.71,0,35.64,0,54.02,0c0,9.44,0,17.95,0,27.42c-17.72,0-35.65,0-54.13,0
			c0,110.82,0,220.69,0,331.21c17.84,0,35.55,0,53.94,0c0,9.33,0,18.04,0,27.91c-2.89,0-5.93,0-8.97,0c-137.37,0-274.73,0-412.1,0
			c-15.76,0-19.74-4.02-19.74-19.92c0-235.07,0-470.14,0-705.21c0-15.89,3.96-19.88,19.77-19.88c235.07,0,470.14,0,705.22,0
			c15.97,0,20.02,3.97,20.02,19.64c0.01,45.41,0,90.81,0,136.22C871.11,339.77,871.11,342.61,871.11,346.27z M250.27,209.35
			c-32.87,0-64.57,0-96.1,0c0,110.36,0,220.03,0,329.86c110.35,0,220.23,0,329.97,0c0-110.45,0-220.33,0-330.08
			c-32.17,0-63.67,0-95.91,0c0,3.56,0,6.65,0,9.74c0,31.9,0.02,63.8-0.01,95.7c-0.02,13.59-4.57,18.22-17.98,18.24
			c-33.05,0.04-66.1,0.02-99.15,0.01c-17.11,0-20.82-3.66-20.83-20.57C250.26,278.11,250.27,243.95,250.27,209.35z M154.31,567.8
			c0,110.51,0,220.38,0,330.28c110.3,0,219.97,0,329.99,0c0-110.29,0-220.17,0-330.09c-32.22,0-63.92,0-96.07,0
			c0,35.65,0.03,70.68-0.01,105.71c-0.02,13.01-4.71,17.81-17.52,17.83c-34.2,0.05-68.4,0.05-102.6,0
			c-13.31-0.02-17.81-4.68-17.82-18.38c-0.03-31.9-0.01-63.8-0.01-95.7c0-3.08,0-6.16,0-9.65
			C217.93,567.8,186.43,567.8,154.31,567.8z M278.24,304.63c27.78,0,54.87,0,81.71,0c0-32.3,0-63.98,0-95.5
			c-27.57,0-54.46,0-81.71,0C278.24,241.06,278.24,272.54,278.24,304.63z M718.74,304.86c0-32.39,0-64.07,0-95.5
			c-27.71,0-54.8,0-81.7,0c0,32.17,0,63.65,0,95.5C664.38,304.86,691.26,304.86,718.74,304.86z M360.04,663.56
			c0-32.35,0-64.04,0-95.5c-27.7,0-54.78,0-81.73,0c0,32.16,0,63.64,0,95.5C305.64,663.56,332.52,663.56,360.04,663.56z"/>
		<path style="fill: #000;" class="st0" d="M953.89,663.88c0,76.42,0.01,152.85-0.01,229.27c-0.01,37.94-22.61,60.52-60.57,60.52
			c-79.3,0.01-158.59,0.02-237.89,0c-37.35-0.01-60.24-22.78-60.24-59.98c-0.02-153.13-0.01-306.27,0-459.4
			c0-37.32,22.78-60.06,60.13-60.07c79.58-0.01,159.17-0.02,238.75,0c36.85,0.01,59.8,22.82,59.82,59.53
			C953.92,510.46,953.89,587.17,953.89,663.88z M926.3,663.74c0-76.44,0.01-152.89-0.01-229.33c0-22.15-10.51-32.58-32.77-32.59
			c-79.32-0.01-158.64-0.01-237.96,0c-22.29,0-32.79,10.42-32.79,32.57c-0.01,152.89-0.01,305.78,0,458.67
			c0,22.77,10.31,33.03,33.2,33.03c79.03,0.01,158.06,0.01,237.09,0c22.98,0,33.22-10.17,33.23-33.01
			C926.31,816.63,926.3,740.19,926.3,663.74z"/>
		<path style="fill: #000;" class="st0" d="M250.64,152.86c0-9.03,0-17.54,0-26.51c137.81,0,275.25,0,413.1,0c0,8.87,0,17.37,0,26.51
			C526.29,152.86,388.85,152.86,250.64,152.86z"/>
		<path style="fill: #000;" class="st0" d="M692.27,126.31c8.79,0,17.28,0,26.43,0c0,8.6,0,17.29,0,26.58c-8.54,0-17.22,0-26.43,0
			C692.27,144.13,692.27,135.44,692.27,126.31z"/>
		<path style="fill: #000;" class="st0" d="M401.48,512.01c-9.06,0-17.34,0-26.33,0c0-8.75,0-17.45,0-26.79c8.38,0,17.08,0,26.33,0
			C401.48,493.85,401.48,502.54,401.48,512.01z"/>
		<path style="fill: #000;" class="st0" d="M456.55,511.86c-8.93,0-17.42,0-26.41,0c0-9.01,0-17.7,0-26.83c8.76,0,17.25,0,26.41,0
			C456.55,493.6,456.55,502.3,456.55,511.86z"/>
		<path style="fill: #000;" class="st0" d="M374.81,870.28c0-9.06,0-17.55,0-26.5c8.84,0,17.33,0,26.53,0c0,8.47,0,17.17,0,26.5
			C392.92,870.28,384.23,870.28,374.81,870.28z"/>
		<path style="fill: #000;" class="st0" d="M456.62,870.51c-9.14,0-17.63,0-26.55,0c0-8.87,0-17.36,0-26.53c8.55,0,17.24,0,26.55,0
			C456.62,852.47,456.62,861.15,456.62,870.51z"/>
		<path style="fill: #000;" class="st0" d="M843.85,609.13c9.01,0,17.53,0,26.04,0c3.62,28.86-17.43,71.99-58.5,88.88
			c-42.34,17.41-90.91,2.86-116.62-34.95c-25.92-38.11-21.39-88.98,10.86-121.93c30.65-31.32,81.23-38.28,116.94-15.6
			c-4.38,7.57-8.77,15.16-13.43,23.22c-22.67-11.42-45.05-12.45-67.24-0.6c-17.66,9.43-29.04,24.18-34.09,43.44
			c-10.33,39.47,15.47,78.2,56.63,85.26C797.8,682.57,840.58,659.88,843.85,609.13z"/>
		<path style="fill: #000;" class="st0" d="M884.52,802.52c0,9.08,0,17.58,0,26.54c-73.24,0-146.09,0-219.65,0c0-8.49,0-17.2,0-26.54
			C737.69,802.52,810.74,802.52,884.52,802.52z"/>
		<path style="fill: #000;" class="st0" d="M730.1,611.7c7.03-6.47,13.5-12.44,20.66-19.03c7,7.63,14.54,15.85,22,23.99
			c34.24-34.28,67.4-67.49,101.06-101.2c7.16,8.04,12.98,14.58,19.25,21.62c-0.86,0.91-2.73,3.02-4.72,5.01
			c-33.29,33.31-66.59,66.62-99.9,99.91c-11.17,11.16-16.67,11.07-28.05-0.26C750.44,631.84,740.46,621.97,730.1,611.7z"/>
		<path style="fill: #000;" class="st0" d="M719.74,773.72c0-9.1,0-17.6,0-26.55c54.85,0,109.3,0,164.47,0c0,8.5,0,17.22,0,26.55
			C829.78,773.72,775.11,773.72,719.74,773.72z"/>
		<path style="fill: #000;" class="st0" d="M733.47,456.34c0-8.93,0-17.42,0-26.41c9.01,0,17.7,0,26.83,0c0,8.76,0,17.25,0,26.41
			C751.73,456.34,743.04,456.34,733.47,456.34z"/>
		<path style="fill: #000;" class="st0" d="M788.69,456.57c0-9.01,0-17.5,0-26.57c8.83,0,17.51,0,26.73,0c0,8.76,0,17.44,0,26.57
			C806.65,456.57,798.16,456.57,788.69,456.57z"/>
		<path style="fill: #000;" class="st0" d="M691.35,773.99c-9.09,0-17.57,0-26.62,0c0-8.9,0-17.59,0-26.77c8.83,0,17.52,0,26.62,0
			C691.35,756.07,691.35,764.55,691.35,773.99z"/>
		<path style="fill: #000;" class="st0" d="M787.93,871.38c0,8.86,0,17.35,0,26.48c-8.68,0-17.37,0-26.63,0c0-8.61,0-17.3,0-26.48
			C769.93,871.38,778.42,871.38,787.93,871.38z"/>
	</g>
</g>
</svg>
