<?xml version="1.0" encoding="utf-8"?>
<!-- Generator: Adobe Illustrator 24.0.1, SVG Export Plug-In . SVG Version: 6.00 Build 0)  -->
<svg version="1.1" id="Layer_1" xmlns="http://www.w3.org/2000/svg" xmlns:xlink="http://www.w3.org/1999/xlink" x="0px" y="0px"
	 viewBox="0 0 1080 1080" style="enable-background:new 0 0 1080 1080;" xml:space="preserve">
<style type="text/css">
	.st0{fill:#FFFFFF;}
	.st1{opacity:0.7;fill:url(#SVGID_1_);}
	.st2{opacity:0.7;fill:url(#SVGID_2_);}
	.st3{opacity:0.7;fill:url(#SVGID_3_);}
	.st4{opacity:0.7;fill:url(#SVGID_4_);}
	.st5{opacity:0.7;fill:url(#SVGID_5_);}
	.st6{opacity:0.7;fill:url(#SVGID_6_);}
	.st7{opacity:0.7;fill:url(#SVGID_7_);}
	.st8{opacity:0.7;fill:url(#SVGID_8_);}
	.st9{opacity:0.7;fill:url(#SVGID_9_);}
	.st10{opacity:0.7;fill:url(#SVGID_10_);}
	.st11{opacity:0.7;fill:url(#SVGID_11_);}
	.st12{opacity:0.7;fill:url(#SVGID_12_);}
</style>
<g>
	<g>
		<path class="st0" d="M993.21,923.9c-10.74,25.69-34.3,34.07-57.91,40.21c-72.38,18.84-145.19,18.71-217.6-0.11
			c-13.44-3.49-26.33-10.17-38.54-17.03c-13.55-7.61-19.23-20.01-19.18-36.16c0.37-116.17,0.51-232.34-0.1-348.51
			c-0.11-20.11,8.38-33.05,24.85-42.12c20.37-11.21,42.58-17.1,65.35-20.63c61.5-9.53,122.73-9.06,183.27,6.78
			c10.19,2.67,20.13,6.66,29.77,10.97c13.52,6.05,24.11,15.55,30.08,29.51C993.21,672.51,993.21,798.21,993.21,923.9z M690.02,551.9
			c0.12,1.06,0.24,2.13,0.35,3.19c3.77,2.56,7.24,5.85,11.37,7.54c9.78,3.99,19.67,8.03,29.88,10.62
			c46.84,11.88,94.45,12.99,142.27,8.38c25.56-2.47,50.85-6.77,74.47-17.54c5.13-2.34,9.69-5.92,14.51-8.92
			c0.06-1.18,0.12-2.36,0.18-3.55c-8.21-4.05-16.11-8.98-24.68-12.01c-36.61-12.94-74.74-16.03-113.22-15.86
			c-37.56,0.16-74.84,3.12-110.53,16C706.07,542.82,698.2,547.79,690.02,551.9z M690.42,713.74c0,3.76,0.54,8.17-0.11,12.4
			c-1.5,9.67,3.41,15.13,11.53,18.27c10.4,4.01,20.78,8.48,31.58,11.02c57.31,13.48,115.08,13.56,172.75,3.04
			c15.74-2.87,30.95-9.1,46.02-14.82c4.31-1.64,9.12-6.37,10.34-10.64c1.76-6.16,0.45-13.2,0.45-19.36
			C871.82,742.97,781.54,743,690.42,713.74z M690.42,834.82c0,4.1,0.54,8.81-0.12,13.35c-1.24,8.49,2.73,13.66,9.93,16.57
			c10.07,4.07,20.12,8.57,30.61,11.16c56.34,13.92,113.28,14.49,170.17,4.56c17.49-3.05,34.47-9.62,51.27-15.73
			c4.38-1.59,8.89-7,10.29-11.59c1.77-5.81,0.43-12.58,0.43-18.42C871.76,864.21,781.47,864.24,690.42,834.82z M690.78,592.64
			c-1.71,25.27-0.05,27.78,24.41,36.27c0.83,0.29,1.65,0.65,2.49,0.92c34.89,11.31,70.9,14.57,107.31,14.62
			c38.78,0.05,77.17-2.98,114.14-15.97c22.99-8.08,24.87-10.84,23.82-34.85c-0.02-0.56-0.25-1.12-0.25-1.11
			C872.18,621.96,781.84,621.93,690.78,592.64z M690.42,895.36c0,3.96,0.58,8.67-0.12,13.18c-1.4,8.99,3.15,14.07,10.57,17.08
			c9.52,3.87,19.05,8.1,28.97,10.56c58.14,14.43,116.82,14.79,175.46,4.01c16.04-2.95,31.6-9.07,46.94-14.92
			c4.4-1.68,8.94-6.96,10.33-11.53c1.78-5.85,0.43-12.66,0.43-18.47C871.91,924.78,781.57,924.88,690.42,895.36z M962.59,774.33
			c-90.97,29.36-181.3,29.17-271.71,0.19c-2.14,24.24,0.14,27.76,23.63,35.94c26.1,9.08,53.16,13.12,80.6,14.73
			c48.57,2.85,96.71,0.89,143.36-14.75C962.45,802.4,964.46,799.03,962.59,774.33z M690.42,653.13c0,3.92,0.55,8.41-0.11,12.71
			c-1.44,9.3,3.19,14.57,11.01,17.69c9.27,3.7,18.48,7.87,28.11,10.27c58.4,14.58,117.34,14.78,176.24,4.07
			c16.03-2.91,31.52-9.26,46.91-14.96c4.11-1.52,8.89-6,9.91-10c1.65-6.47,0.44-13.67,0.44-19.87
			C871.8,682.45,781.78,682.39,690.42,653.13z"/>
		<path class="st0" d="M844.11,415.99c-244.05,0-487.02,0-730.61,0c0,111.93,0,223.58,0,336.71c3.62,0,7.31,0,10.99,0
			c160.2,0,320.41-0.01,480.61,0.04c4.1,0,8.29,0.11,12.29,0.91c6.72,1.35,10.03,5.98,9.77,12.74c-0.26,6.83-4.27,10.83-10.82,12.04
			c-2.86,0.53-5.88,0.32-8.82,0.32c-166.99,0.01-333.98,0.01-500.97,0.01c-16.19,0-19.76-3.56-19.76-19.69
			c-0.01-116.54-0.01-233.08,0-349.62c0-16.53,3.62-20.1,20.37-20.1c247.53,0,495.07,0,742.6,0c16.35,0,19.93,3.5,19.97,19.48
			c0.03,12.1,0.13,24.19-0.05,36.29c-0.15,10.18-4.84,15.46-13.08,15.29c-7.89-0.16-12.29-5.28-12.47-15.01
			C843.97,435.75,844.11,426.1,844.11,415.99z"/>
		<path class="st0" d="M170.14,221.44c-6,26.87-11.9,53.28-17.78,79.69c-3.01,13.51-5.88,27.05-8.99,40.54
			c-2.24,9.71-8.07,14.12-16.04,12.49c-7.79-1.59-11.34-8.23-9.19-17.97c9.55-43.44,19.15-86.86,28.85-130.27
			c2.57-11.5,8.25-14.81,20.1-12.14c152.29,34.27,304.57,68.57,456.86,102.84c45.69,10.28,91.39,20.49,137.08,30.75
			c2.59,0.58,5.22,1.03,7.73,1.87c6.96,2.34,10.96,6.99,9.87,14.64c-1.01,7.1-7.14,11.59-14.98,10.33
			c-9.87-1.59-19.63-3.98-29.39-6.18c-187.06-42.09-374.11-84.21-561.17-126.31C172.53,221.59,171.93,221.6,170.14,221.44z"/>
		<path class="st0" d="M462.98,717.17c-73.63-0.21-133.88-60.67-133.1-133.55c0.8-73.99,60.49-133.04,134.02-132.59
			c73.29,0.45,132.64,60.02,132.62,133.1C596.49,657.61,536.49,717.38,462.98,717.17z M464.45,475.19
			c-58.14-1.49-108.47,46.6-110.2,105.29c-1.8,61.1,45.38,110.65,107.28,112.69c57.96,1.91,108.88-46.48,110.43-104.94
			C573.6,526,526.8,476.79,464.45,475.19z"/>
		<path class="st0" d="M281.53,718.34c-17.99,0-35.97-0.18-53.95,0.09c-7.62,0.11-13.54-2.22-18.7-7.96
			c-18.32-20.4-37.16-40.33-55.2-60.97c-3.53-4.03-6.07-10.39-6.16-15.73c-0.56-33.01-0.69-66.05,0.08-99.05
			c0.15-6.32,3.39-14,7.79-18.56c19.44-20.15,39.53-39.7,60.09-58.71c4.47-4.14,11.8-7.15,17.87-7.27
			c34.48-0.68,68.99-0.34,103.48-0.32c2.06,0,4.15-0.01,6.16,0.35c7.28,1.32,11.87,5.45,11.6,13.17
			c-0.26,7.69-5.04,11.85-12.41,12.4c-6.75,0.5-13.55,0.19-20.33,0.2c-27.13,0.01-54.25-0.2-81.37,0.22
			c-4.14,0.07-9.18,2.05-12.18,4.87c-16.99,15.93-33.64,32.23-49.98,48.82c-2.7,2.74-4.63,7.51-4.68,11.38
			c-0.39,28.3-0.38,56.61-0.01,84.91c0.05,3.93,1.85,8.65,4.45,11.6c14.59,16.61,29.48,32.96,44.77,48.93
			c2.8,2.93,7.87,5.15,11.92,5.2c33.31,0.41,66.63,0.22,99.95,0.25c2.94,0,5.95-0.13,8.81,0.42c6.88,1.33,11.19,5.49,11.16,12.72
			c-0.04,7.21-4.33,11.36-11.25,12.64c-2.58,0.48-5.28,0.38-7.93,0.38C317.5,718.36,299.51,718.34,281.53,718.34z"/>
		<path class="st0" d="M333.08,131.55c-7.51,15-14.71,29.45-21.99,43.85c-1.45,2.88-2.9,5.86-4.94,8.32
			c-4.36,5.26-10.19,6.19-15.9,2.94c-5.61-3.19-8.8-8.72-5.79-14.99c10.31-21.48,20.74-42.93,31.97-63.93
			c4.31-8.07,12.27-6.48,19.6-3.42c34.5,14.39,69.01,28.74,103.51,43.12c82.85,34.54,165.7,69.09,248.54,103.65
			c2.98,1.24,6.06,2.39,8.77,4.11c6.1,3.85,7.96,9.69,5.05,16.08c-2.88,6.3-8.37,9.23-15.32,6.89c-6.96-2.34-13.75-5.21-20.53-8.04
			c-108.12-45.06-216.22-90.16-324.33-135.24C339.28,133.86,336.79,132.97,333.08,131.55z"/>
		<path class="st0" d="M643.94,475.98c-18.54,0-37.08,0.06-55.63-0.02c-10.79-0.05-16.52-4.58-16.62-12.81
			c-0.1-8.26,5.62-13.2,16.28-13.24c37.67-0.13,75.35-0.13,113.02,0c10.64,0.04,16.36,5.06,16.19,13.34
			c-0.16,8.15-5.97,12.67-16.74,12.71C681.61,476.04,662.78,475.98,643.94,475.98z"/>
		<path class="st0" d="M477.63,601.01c-3.59-0.53-7.17-1.28-10.78-1.56c-6.74-0.52-13.61-0.15-20.24-1.25
			c-15.08-2.52-27.05-15.86-28.56-30.9c-1.35-13.46,8.53-27.9,22.69-33.57c2.73-1.09,6.55-2.6,7.35-4.82
			c2.8-7.82,7.19-12.85,15.94-12.49c8.84,0.37,12.6,6.43,14.83,14.66c4.68,0,9.39-0.31,14.04,0.06c9.83,0.78,15.79,7.12,15.37,15.86
			c-0.41,8.44-6.32,13.94-16,14.18c-11.19,0.28-22.4-0.1-33.6,0.21c-3.4,0.09-6.77,1.52-10.15,2.33c0.07,1.01,0.15,2.03,0.22,3.04
			c3.21,0.72,6.38,1.82,9.63,2.07c5.87,0.45,11.8,0.09,17.66,0.6c16.57,1.46,30.31,14.56,32.1,30.3
			c1.73,15.13-8.1,29.56-23.75,35.36c-2.4,0.89-5.57,2.65-6.23,4.71c-2.51,7.73-7.31,12.17-15.38,12.05
			c-7.77-0.12-12.32-4.78-14.34-12.12c-0.22-0.81-0.77-1.52-1.41-2.75c-4.85,0-9.88,0.38-14.84-0.08
			c-8.41-0.78-14.41-7.49-14.23-15.25c0.18-7.84,6.28-14.25,14.87-14.56c11.48-0.41,22.99,0.01,34.48-0.27
			c3.48-0.09,6.94-1.31,10.41-2.01C477.67,603.55,477.65,602.28,477.63,601.01z"/>
	</g>
</g>
</svg>
