<?xml version="1.0" encoding="utf-8"?>
<!-- Generator: Adobe Illustrator 24.0.1, SVG Export Plug-In . SVG Version: 6.00 Build 0)  -->
<svg version="1.1" id="Layer_1" xmlns="http://www.w3.org/2000/svg" xmlns:xlink="http://www.w3.org/1999/xlink" x="0px" y="0px"
	 viewBox="0 0 1080 1080" style="enable-background:new 0 0 1080 1080;" xml:space="preserve">
<style type="text/css">
	.st0{fill:#FFFFFF;}
	.st1{opacity:0.7;fill:url(#SVGID_1_);}
	.st2{opacity:0.7;fill:url(#SVGID_2_);}
	.st3{opacity:0.7;fill:url(#SVGID_3_);}
	.st4{opacity:0.7;fill:url(#SVGID_4_);}
	.st5{opacity:0.7;fill:url(#SVGID_5_);}
	.st6{opacity:0.7;fill:url(#SVGID_6_);}
	.st7{opacity:0.7;fill:url(#SVGID_7_);}
	.st8{opacity:0.7;fill:url(#SVGID_8_);}
	.st9{opacity:0.7;fill:url(#SVGID_9_);}
	.st10{opacity:0.7;fill:url(#SVGID_10_);}
	.st11{opacity:0.7;fill:url(#SVGID_11_);}
	.st12{opacity:0.7;fill:url(#SVGID_12_);}
</style>
<g>
	<g>
		<path class="st0" d="M101.11,958.03c0-63.98,0-127.96,0-191.94c7.51-18.24,22.15-23.06,39.77-20.27c0.73-1.6,1.15-2.09,1.16-2.59
			c0.09-11.99,0.11-23.99,0.18-35.98c0.12-18.76,11.05-29.91,29.6-30.29c2.49-0.05,4.97-0.31,7.58-0.48
			c3.12-18.29,6.09-36,9.15-53.69c11.82-68.3,23.34-136.66,35.63-204.88c5.78-32.08,19.31-42.5,51.59-42.5c14.73,0,29.46,0,44.02,0
			c0-28.12,0-55.06,0-82.32c-22.08,0-43.49,0.07-64.9-0.03c-11.68-0.05-16.53-4.99-16.63-16.79c-0.1-11.42-0.05-22.85-0.02-34.27
			c0.09-35.61,22.86-58.54,58.25-58.57c52.55-0.04,105.11-0.04,157.66,0c35.52,0.03,58.2,22.81,58.24,58.5
			c0.05,41.42,0.01,82.83,0.01,124.25c0,2.99,0,5.97,0,8.72c46.42,0,91.43,0,136.47,0c0-45.75,0-90.97,0-136.64
			c-18,0-35.4,0.08-52.79-0.02c-25.06-0.14-42.3-17.49-42.55-42.71c-0.06-6.28-0.01-12.57-0.01-18.85c0-7.71,0.52-15.46-0.09-23.13
			c-2.04-25.65,7.77-43.65,32.65-52.39c83.4,0,166.8,0,250.21,0c0.66,0.49,1.25,1.18,1.99,1.44c21.09,7.62,30.52,20.88,30.58,43.16
			c0.04,15.42,0.02,30.83,0.01,46.25c-0.03,29.79-16.34,46.22-45.91,46.24c-16.46,0.01-32.93,0-49.51,0c0,46.18,0,91.39,0,137.16
			c11.65,0,22.74,0,33.83,0c27.17,0,42.86,12.34,47.67,39.11c10.64,59.22,20.76,118.53,31.01,177.81
			c4.84,28.02,9.48,56.07,14.18,83.91c1.63,0.34,2.45,0.62,3.27,0.66c25.75,1.19,34,9.74,34,35.31c0,11.01,0,22.01,0,33.3
			c3.01,0,4.73,0.18,6.4-0.03c20.56-2.52,35.53,10.34,35.06,35.38c-1.04,54.51-0.32,109.06-0.32,163.59
			c0,24.36-9.83,34.13-34.32,34.13c-268.95,0-537.9-0.11-806.85,0.26C120.28,978.87,108.13,973.83,101.11,958.03z M950.72,773.52
			c-274.32,0-548,0-821.51,0c0,59.5,0,118.42,0,177.22c274.15,0,547.62,0,821.51,0C950.72,891.6,950.72,832.88,950.72,773.52z
			 M512.79,443.91c9.18,0,17.44-0.1,25.69,0.02c17.1,0.25,28.46,11.48,28.74,28.43c0.13,7.71,0.05,15.42,0.02,23.13
			c-0.08,19.67-11.04,30.62-30.85,30.66c-35.7,0.05-71.39,0.02-107.09,0.02c-44.84,0-89.67,0.08-134.51-0.04
			c-17.74-0.05-28.95-11.3-29.16-28.86c-0.1-8.28-0.12-16.56,0.01-24.84c0.25-16.96,11.6-28.23,28.68-28.49
			c8.48-0.13,16.95-0.02,25.51-0.02c0-14.17,0-27.39,0-41.07c-16.3,0-31.97-0.01-47.65,0c-14.08,0.01-18.02,3.02-20.53,17.32
			c-12.02,68.26-23.86,136.55-35.76,204.83c-2.97,17.04-5.9,34.08-8.89,51.36c222.29,0,443.67,0,665.58,0
			c-2.45-14.17-4.77-27.64-7.12-41.11C853,563.59,840.59,491.92,828,420.29c-2.53-14.4-6.63-17.45-21.31-17.45
			c-94.52,0-189.05,0-283.57,0c-3.33,0-6.65,0-10.32,0C512.79,416.86,512.79,429.88,512.79,443.91z M484.7,498.37
			c0.13-2.05,0.29-3.43,0.29-4.81c0.01-84.76,0.07-169.52-0.04-254.28c-0.02-17.09-11.45-28.32-28.61-28.41
			c-28.25-0.13-56.51-0.04-84.76-0.04c-9.87,0-19.75,0-31.1,0c8.31,14.06,7.42,28.37,7.41,42.59c-0.03,78.2-0.01,156.39-0.01,234.59
			c0,3.33,0,6.67,0,10.36C393.81,498.37,438.8,498.37,484.7,498.37z M909.58,704.96c-246.89,0-493.13,0-739.24,0
			c0,13.81,0,27.04,0,40.14c246.72,0,492.77,0,739.24,0C909.58,731.67,909.58,718.65,909.58,704.96z M711.52,210.83
			c37.37,0,74.74,0.02,112.12-0.01c13.04-0.01,17.76-4.57,17.81-17.22c0.07-16.26,0.1-32.52-0.02-48.78
			c-0.08-11.16-5.06-16.2-16.27-16.21c-75.89-0.06-151.77-0.06-227.66-0.01c-11.66,0.01-16.44,4.97-16.5,16.83
			c-0.09,15.69-0.05,31.38-0.01,47.07c0.03,14.04,4.32,18.31,18.41,18.32C636.78,210.85,674.15,210.83,711.52,210.83z
			 M677.52,238.65c0,45.86,0,91.07,0,136.08c22.96,0,45.33,0,67.56,0c0-45.69,0-90.69,0-136.08
			C722.48,238.65,700.32,238.65,677.52,238.65z M320.47,265.5c0-3.83,0.02-6.91,0-9.99c-0.04-6.84,0.38-13.73-0.27-20.52
			c-1.23-12.92-12.2-23.19-24.97-24.09c-13.05-0.93-25.77,7.1-28.08,20.01c-2.01,11.22-1.32,22.93-1.84,34.59
			C284.42,265.5,301.79,265.5,320.47,265.5z M320.09,471.79c-9.43,0-17.85,0-26.47,0c0,9.1,0,17.73,0,26.33c9.18,0,17.81,0,26.47,0
			C320.09,489.08,320.09,480.65,320.09,471.79z M539.35,498.33c0-9.04,0-17.67,0-26.45c-9.11,0-17.74,0-26.29,0
			c0,9.2,0,17.84,0,26.45C522.13,498.33,530.56,498.33,539.35,498.33z"/>
		<path class="st0" d="M430.1,841.2c73.55,0,145.94,0,219.46,0c0-4.69-0.22-9.16,0.05-13.61c0.49-8.31,5.82-13.45,13.6-13.47
			c7.85-0.02,13.3,5.03,13.63,13.39c0.34,8.55,0.22,17.12,0.08,25.68c-0.18,10.54-5.24,15.6-15.96,15.67
			c-20.26,0.14-40.52,0.04-60.78,0.04c-59.35,0-118.7,0.01-178.06-0.01c-15.21,0-19.36-4.12-19.39-19.15
			c-0.01-7.42-0.22-14.85,0.1-22.25c0.37-8.3,5.83-13.41,13.65-13.37c7.82,0.04,13.06,5.11,13.58,13.5
			C430.31,831.86,430.1,836.12,430.1,841.2z"/>
		<path class="st0" d="M704.37,539.87c-26.25,0-52.51,0.02-78.76-0.01c-20.36-0.02-30.87-10.65-30.92-31.25
			c-0.04-15.98-0.06-31.96,0.01-47.94c0.08-19.5,10.81-30.39,30.03-30.41c53.08-0.04,106.16-0.04,159.24,0
			c18.9,0.01,29.91,10.8,30.05,29.5c0.12,16.84,0.12,33.67,0,50.51c-0.13,18.7-11.17,29.54-30.02,29.58
			C757.45,539.91,730.91,539.87,704.37,539.87z M786.21,458.28c-55.03,0-109.33,0-163.71,0c0,18.18,0,35.75,0,53.73
			c54.71,0,109.01,0,163.71,0C786.21,494.01,786.21,476.44,786.21,458.28z"/>
		<path class="st0" d="M622.82,567.36c4.54-0.01,9.1-0.26,13.62,0.05c8.24,0.56,13.21,5.96,13.1,13.79
			c-0.1,7.45-4.89,12.97-12.67,13.32c-9.92,0.44-19.88,0.46-29.8-0.02c-7.6-0.37-12.4-6.28-12.29-13.71
			c0.11-7.43,5.01-12.81,12.7-13.35C612.58,567.07,617.71,567.36,622.82,567.36z"/>
		<path class="st0" d="M704.75,567.38c4.85,0,9.73-0.33,14.54,0.08c7.58,0.65,12.68,6.42,12.27,13.82
			c-0.41,7.49-4.36,12.72-12.01,13.16c-10.24,0.59-20.57,0.62-30.79-0.05c-7.56-0.5-11.59-5.63-11.8-13.27
			c-0.21-7.52,4.7-12.84,12.38-13.74c0.57-0.07,1.14-0.07,1.71-0.07c4.57-0.01,9.13,0,13.7,0
			C704.75,567.34,704.75,567.36,704.75,567.38z"/>
		<path class="st0" d="M785.8,594.58c-4.85,0-9.74,0.38-14.55-0.09c-7.61-0.74-12.43-6.52-12.01-14.03
			c0.43-7.62,4.6-12.52,12.2-12.95c9.96-0.55,19.99-0.48,29.96-0.04c7.71,0.34,12.58,6.13,12.52,13.6
			c-0.06,7.48-4.95,12.69-12.71,13.53c-0.57,0.06-1.14,0.07-1.71,0.07c-4.57,0.01-9.14,0-13.7,0
			C785.8,594.66,785.8,594.62,785.8,594.58z"/>
		<path class="st0" d="M608.89,622.22c4.85,0,9.73-0.33,14.55,0.08c7.63,0.64,12.61,6.3,12.3,13.77
			c-0.32,7.58-4.34,12.72-11.94,13.19c-10.23,0.63-20.56,0.63-30.79,0c-7.63-0.47-11.56-5.73-11.89-13.25
			c-0.33-7.46,4.72-12.88,12.37-13.78c0.57-0.07,1.14-0.07,1.71-0.07c4.57-0.01,9.13,0,13.7,0
			C608.89,622.17,608.89,622.2,608.89,622.22z"/>
		<path class="st0" d="M704.06,649.45c-4.83,0.01-9.68,0.32-14.48-0.06c-7.77-0.61-12.55-5.9-12.65-13.37
			c-0.1-7.82,4.89-13.45,13.1-13.75c9.64-0.36,19.32-0.38,28.96,0.03c7.73,0.33,12.6,5.88,12.7,13.32
			c0.11,7.42-4.69,13.06-12.31,13.73C714.31,649.8,709.17,649.44,704.06,649.45z"/>
		<path class="st0" d="M800.23,622.16c4.57,0,9.14-0.19,13.7,0.04c8.39,0.42,13.58,5.58,13.74,13.33
			c0.16,7.79-4.92,13.53-13.17,13.86c-9.4,0.39-18.84,0.37-28.24,0.01c-8.29-0.31-13.37-5.92-13.29-13.73
			c0.08-7.81,5.21-13.04,13.57-13.48C791.09,621.96,795.66,622.16,800.23,622.16z"/>
		<path class="st0" d="M416.94,320.53c8.85,0,17.71-0.18,26.55,0.05c9.02,0.24,14.24,5.43,14.24,13.62c0,8.17-5.19,13.5-14.26,13.62
			c-17.98,0.25-35.98,0.25-53.96,0c-9.07-0.13-14.27-5.48-14.27-13.65c0-8.17,5.24-13.37,14.29-13.6
			C398.66,320.35,407.8,320.53,416.94,320.53z"/>
		<path class="st0" d="M417.12,375.36c8.57,0,17.14-0.14,25.7,0.03c9.15,0.18,14.49,5.1,14.73,13.19
			c0.25,8.43-5.25,14.01-14.69,14.11c-17.7,0.19-35.42,0.21-53.12-0.02c-8.98-0.11-14.33-5.54-14.34-13.63
			c-0.01-8.11,5.35-13.42,14.3-13.64C398.84,375.2,407.98,375.37,417.12,375.36z"/>
		<path class="st0" d="M402.7,293.04c-4.57,0-9.15,0.23-13.7-0.05c-8.4-0.51-13.52-5.76-13.6-13.54
			c-0.07-7.81,5.02-13.39,13.34-13.7c9.41-0.35,18.86-0.36,28.26,0.01c8.25,0.33,13.28,6.02,13.12,13.86
			c-0.15,7.49-4.99,12.71-12.87,13.3c-4.83,0.36-9.7,0.07-14.56,0.07C402.7,293.02,402.7,293.03,402.7,293.04z"/>
		<path class="st0" d="M712.12,156c24.23-0.01,48.46-0.12,72.69,0.04c11.55,0.08,18.23,8.62,14.71,18.36
			c-2.2,6.08-6.78,8.97-13.15,8.97c-50.17,0.02-100.34,0.09-150.51-0.07c-8.72-0.03-14.02-5.96-13.75-14.09
			c0.27-8.03,5.6-13.1,14.75-13.16C661.95,155.9,687.04,156.01,712.12,156z"/>
	</g>
</g>
</svg>
