<?xml version="1.0" encoding="utf-8"?>
<!-- Generator: Adobe Illustrator 24.0.1, SVG Export Plug-In . SVG Version: 6.00 Build 0)  -->
<svg version="1.1" id="Layer_1" xmlns="http://www.w3.org/2000/svg" xmlns:xlink="http://www.w3.org/1999/xlink" x="0px" y="0px"
	 viewBox="0 0 1080 1080" style="enable-background:new 0 0 1080 1080;" xml:space="preserve">
<style type="text/css">
	.st0{fill:#FFFFFF;}
	.st1{opacity:0.7;fill:url(#SVGID_1_);}
	.st2{opacity:0.7;fill:url(#SVGID_2_);}
	.st3{opacity:0.7;fill:url(#SVGID_3_);}
	.st4{opacity:0.7;fill:url(#SVGID_4_);}
	.st5{opacity:0.7;fill:url(#SVGID_5_);}
	.st6{opacity:0.7;fill:url(#SVGID_6_);}
	.st7{opacity:0.7;fill:url(#SVGID_7_);}
	.st8{opacity:0.7;fill:url(#SVGID_8_);}
	.st9{opacity:0.7;fill:url(#SVGID_9_);}
	.st10{opacity:0.7;fill:url(#SVGID_10_);}
	.st11{opacity:0.7;fill:url(#SVGID_11_);}
	.st12{opacity:0.7;fill:url(#SVGID_12_);}
</style>
<g>
	<g>
		<path style="fill: #000;" class="st0" d="M505.01,989.49c-13.74-2.48-28-3.4-41.11-7.77c-22.9-7.63-45.04-17.51-67.63-26.12
			c-3.38-1.29-7.46-1.21-11.18-1.02c-4.91,0.24-9.78,1.77-14.67,1.79c-46.81,0.14-93.62,0.14-140.43,0.06
			c-22.84-0.04-35.04-12.33-35.05-35.42C194.87,811,194.91,701,194.9,591c0-3.75,0-7.49,0-12.29c-12.06,0-23.39-0.15-34.71,0.04
			c-14.59,0.25-25.59-5.47-31.72-18.97c-5.74-12.64-2.71-25.19,8.69-36.63c34.08-34.18,68.24-68.3,102.46-102.34
			c2.25-2.23,5.31-3.65,7.99-5.44c-0.58-1.1-1.16-2.2-1.74-3.3c-3.89,0-7.79,0.16-11.67-0.03c-12.57-0.61-21.76-6.87-26.9-18.08
			c-5.13-11.21-3.81-22.28,3.79-32.23c1.94-2.54,4.3-4.78,6.57-7.06c44.88-44.9,89.77-89.8,134.67-134.68
			c18.23-18.22,34.65-18.2,52.95,0.07c10.56,10.54,21.16,21.04,31.63,31.67c7.24,7.35,7.84,15,1.9,20.76
			c-6.01,5.83-13.11,5.08-20.7-2.44c-11.02-10.91-22.09-21.77-32.82-32.96c-4.77-4.98-8.26-4.72-13.05,0.09
			c-45.6,45.83-91.4,91.48-137,137.31c-2.01,2.02-2.71,5.36-4.02,8.08c2.75,1.09,5.44,2.88,8.27,3.12
			c5.81,0.49,11.69,0.07,17.54,0.17c9.59,0.17,18.11-0.26,26.57-7.4c11.75-9.91,28.13-6.77,40.33,5.36
			c28.84,28.67,57.71,57.31,86.15,86.38c5.78,5.91,10.37,7.43,17.94,3.55c6.94-3.56,14.69-5.76,22.31-7.66
			c5.98-1.49,7.63-4.35,7.47-10.36c-0.45-16.96-0.17-33.93-0.15-50.9c0.02-15.1,3.97-18.97,19.38-18.99
			c13.75-0.02,27.5,0.13,41.25-0.13c2.61-0.05,5.19-1.68,7.78-2.58c-1.09-2.77-1.45-6.26-3.37-8.22
			c-19.05-19.43-38.34-38.61-57.59-57.84c-5.17-5.17-6.7-11.03-2.76-17.42c3.55-5.77,9.17-7.1,15.33-5.11
			c2.37,0.76,4.58,2.59,6.4,4.4c19.92,19.8,39.84,39.6,59.57,59.59c9.82,9.95,12.22,21.95,6.82,34.75
			c-5.28,12.52-15.41,18.72-29.03,18.85c-11.98,0.11-23.96,0.02-36.69,0.02c0,15.12,0,29.83,0,44.07c28.89,0,57.9,0,87.68,0
			c0-51.93,0-105.23,0-159.9c-10.84,0-21.83-0.28-32.81,0.07c-15.22,0.48-27.11-4.74-33.16-19.3c-6.06-14.56-1.11-26.48,9.65-37.17
			c45.85-45.58,91.48-91.39,137.23-137.09c16.29-16.28,33.64-16.41,49.8-0.27c45.76,45.68,91.38,91.5,137.23,137.09
			c10.72,10.66,15.61,22.54,10.06,37.22c-4.99,13.2-16.23,19.42-34,19.46c-7.9,0.02-15.8,0-23.7,0c-2.57,0-5.15,0-9.01,0
			c0,5.85,0,11,0,16.15c0,5.25,0,10.5,0,15.74c0.6-0.52,1.2-1.04,1.8-1.56c9.08,7.42,18.82,14.16,27.12,22.37
			c43.27,42.79,86.34,85.78,128.99,129.18c5.63,5.73,10.56,13.78,12.15,21.51c3.73,18.08-11.22,34.57-30.23,35.06
			c-12.25,0.31-24.51,0.06-38.22,0.06c0,4.14,0,7.78,0,11.42c0,124.34-0.04,248.68,0.06,373.02c0.01,12.3-2.01,23.87-12.98,30.81
			c-5.62,3.55-12.96,6.05-19.55,6.12c-48.56,0.5-97.13,0.21-145.69,0.3c-11.76,0.02-20.79-4.94-26.51-12.79
			c-22.55,10.55-43.83,22.39-66.45,30.5c-19.05,6.83-39.66,9.3-59.58,13.72c-1.94,0.43-3.83,1.05-5.74,1.59
			C534.27,989.49,519.64,989.49,505.01,989.49z M786.65,358.34c-0.98,0.54-1.96,1.08-2.94,1.62c0,20.67,0.07,41.33-0.03,62
			c-0.06,11.01-4.96,16.86-13.55,16.7c-8.37-0.15-12.71-5.56-12.72-16.39c-0.06-45.05-0.06-90.1,0-135.15
			c0.02-12.9,4.38-17.08,17.58-17.14c14.33-0.06,28.67,0.12,43-0.14c2.62-0.05,5.21-1.68,7.82-2.58c-1.16-2.75-1.63-6.19-3.58-8.15
			c-45.78-46.05-91.76-91.92-137.59-137.93c-4.35-4.37-7.57-5.13-12.33-0.35c-46.01,46.24-92.21,92.29-138.23,138.53
			c-1.79,1.8-2.26,4.9-3.35,7.4c2.76,1.07,5.51,2.99,8.29,3.06c13.45,0.32,26.91,0.14,40.36,0.15c16.36,0.02,20.13,3.78,20.14,20.15
			c0.01,55.29,0.14,110.57-0.17,165.86c-0.04,6.83,2.2,9.45,8.5,11.49c61.3,19.81,109.19,57.22,144.37,111.07
			c1.16,1.78,2.56,3.4,5.15,6.82c0-21.43-0.01-40.64,0-59.85c0.01-12.87-0.12-25.74,0.16-38.61c0.16-7.59,4.67-12.01,12.08-12.47
			c7.46-0.47,12.17,3.66,13.61,10.95c0.62,3.11,0.45,6.4,0.46,9.61c0.02,48.27-0.04,96.53,0.1,144.8
			c0.02,5.19,0.76,10.48,1.97,15.53c18.12,75.82,7.32,147.13-35.53,212.36c-12.7,19.34-30.04,35.61-45.14,53.4
			c-1.5,1.77-2.13,4.29-3.16,6.46c2.04,0.86,4.02,2.06,6.14,2.47c2.26,0.43,4.66,0.12,7,0.12c42.42,0,84.83,0,127.25,0
			c16.65,0,16.66,0,16.66-16.66c0-128.71-0.01-257.42,0.01-386.13c0-14.94,3.85-18.8,18.51-18.83c13.16-0.03,26.33,0.18,39.49-0.13
			c3.5-0.08,6.97-1.69,10.45-2.59c-1.75-3.37-2.79-7.44-5.34-10.01c-41.22-41.52-82.66-82.82-123.96-124.25
			C794.05,367.39,790.48,362.74,786.65,358.34z M767.9,722.21c0.13-132.6-108.34-241.21-241.07-241.36
			c-132.67-0.16-241.12,108.19-241.25,241.03C285.45,854.66,393.63,963,526.51,963.15C659.21,963.3,767.77,854.94,767.9,722.21z
			 M392.85,489.96c-29.34-29.35-58.13-58.04-86.76-86.9c-4.3-4.33-7.48-4.18-11.7,0.05c-46.05,46.21-92.24,92.28-138.27,138.52
			c-1.82,1.83-2.41,4.88-3.57,7.37c2.74,1.13,5.46,3.17,8.22,3.22c15.21,0.32,30.42,0.01,45.63,0.21
			c9.75,0.13,14.33,4.85,14.79,14.58c0.14,2.92,0.05,5.85,0.05,8.78c0,114.1,0,228.19,0.01,342.29c0,11.78,0.25,12.03,11.61,12.03
			c38.62,0.02,77.23,0.02,115.85-0.01c2.49,0,4.98-0.27,8.82-0.5c-69.8-61.48-104.45-137.18-97.03-229.14
			C267.92,608.31,314.58,539.28,392.85,489.96z"/>
		<path style="fill: #000;" class="st0" d="M525.94,507.65c126.67,2.02,224.73,110.38,212.32,236.16c-9.94,100.7-92.33,181.63-193.29,189.85
			c-113.89,9.27-214.13-70.9-229.01-183.99c-7.21-54.74,5.46-105.13,37.41-150.34c2.49-3.52,6.87-7.47,10.67-7.8
			c4.09-0.36,9.67,2.27,12.57,5.45c4.4,4.81,2.78,10.83-0.98,16.09c-13.37,18.73-23.14,39.14-29.03,61.46
			c-29.35,111.2,48.64,222.59,163.13,232.84c100.76,9.02,188.59-62.07,202.01-163.5c12.65-95.63-54.9-187.52-151.54-204.95
			c-49.29-8.89-95.34,0.66-137.3,28.49c-1.71,1.13-3.33,2.39-5.08,3.45c-7.2,4.36-14.37,3.32-18.7-2.66
			c-4.59-6.35-3.25-13.77,4-19.04c20.06-14.57,41.96-25.8,66.04-31.57C487.8,513.11,506.99,510.88,525.94,507.65z"/>
		<path style="fill: #000;" class="st0" d="M379.88,721.82c0.14-81.53,66-146.95,147.67-146.68c80.8,0.26,146.18,66.32,146.03,147.54
			c-0.15,80.86-66.28,146.47-147.33,146.17C445.02,868.56,379.74,802.99,379.88,721.82z M406.21,721.8
			c-0.15,66.66,53.36,120.48,120.03,120.73c66.59,0.25,120.84-53.48,121.01-119.83c0.17-66.69-53.4-120.96-119.68-121.22
			C460.42,601.2,406.36,654.8,406.21,721.8z"/>
		<path style="fill: #000;" class="st0" d="M540.4,800.7c-1.7,16-5.01,21.34-14,21.14c-8.82-0.19-11.79-5.23-13.23-21.88
			c-8.64-4.17-17.43-7.46-25.17-12.37c-12.45-7.9-19.94-19.58-21.43-34.52c-0.92-9.19,4.07-15.71,11.93-16.35
			c7.58-0.62,12.04,4.45,14.51,13.24c1.55,5.53,4.67,11.58,8.95,15.19c13.3,11.22,36.1,10.71,49.86,0.02
			c12.98-10.09,11.66-25.55-3.4-31.87c-10.44-4.38-21.65-6.92-32.45-10.47c-6.09-2-12.29-3.9-18.03-6.68
			c-25.77-12.46-29.96-41.82-8.88-61.28c2.35-2.17,4.87-4.39,7.71-5.73c9.47-4.47,19.61-7.19,18.09-21.86
			c-0.59-5.71,6.59-9.15,13.28-8.43c7.19,0.77,11.87,5.5,11.42,12.15c-0.62,9.1,3.41,12.03,11.14,15.23
			c15.17,6.27,25.43,17.56,26.66,34.95c0.61,8.63-3.77,14.29-11.09,15.19c-7.46,0.92-13.2-3.14-14.63-11.7
			c-1.83-10.94-9.32-14.94-18.77-16.66c-10.99-2-21.18-0.12-28.47,9.14c-4.49,5.69-2.89,11.98,4.32,14.97
			c9.12,3.78,18.82,6.16,28.21,9.33c8.28,2.79,16.87,5.05,24.63,8.92c30.16,15.05,34.55,52.41,8.28,73.68
			C561.45,790.84,550.86,794.91,540.4,800.7z"/>
	</g>
</g>
</svg>
