<?xml version="1.0" encoding="utf-8"?>
<!-- Generator: Adobe Illustrator 24.0.1, SVG Export Plug-In . SVG Version: 6.00 Build 0)  -->
<svg version="1.1" id="Layer_1" xmlns="http://www.w3.org/2000/svg" xmlns:xlink="http://www.w3.org/1999/xlink" x="0px" y="0px"
	 viewBox="0 0 1080 1080" style="enable-background:new 0 0 1080 1080;" xml:space="preserve">
<style type="text/css">
	.st0{fill:#FFFFFF;}
	.st1{opacity:0.7;fill:url(#SVGID_1_);}
	.st2{opacity:0.7;fill:url(#SVGID_2_);}
	.st3{opacity:0.7;fill:url(#SVGID_3_);}
	.st4{opacity:0.7;fill:url(#SVGID_4_);}
	.st5{opacity:0.7;fill:url(#SVGID_5_);}
	.st6{opacity:0.7;fill:url(#SVGID_6_);}
	.st7{opacity:0.7;fill:url(#SVGID_7_);}
	.st8{opacity:0.7;fill:url(#SVGID_8_);}
	.st9{opacity:0.7;fill:url(#SVGID_9_);}
	.st10{opacity:0.7;fill:url(#SVGID_10_);}
	.st11{opacity:0.7;fill:url(#SVGID_11_);}
	.st12{opacity:0.7;fill:url(#SVGID_12_);}
</style>
<g>
	<g>
		<path style="fill: #000;" class="st0" d="M410.05,118.78c12.45,5.36,17.06,15.03,16.33,28.22c-0.47,8.45-2.91,19.03,1.08,24.85
			c3.82,5.57,14.98,5.83,22.61,9.11c11.79,5.07,23.49,10.42,34.87,16.32c4.37,2.27,6.99,2.63,10.48-1.25
			c5.67-6.31,11.82-12.2,17.96-18.06c10.42-9.93,22.38-9.89,32.71,0.21c11.36,11.11,22.62,22.34,33.72,33.71
			c10.21,10.46,10.29,22.23,0.14,32.63c-7.25,7.43-14.96,14.42-20.74,19.95c8.46,22.49,16.09,43.13,24.05,63.65
			c2.28,5.89,7.2,4.64,10.68,1.67c6.56-5.6,13.98-6.84,22.17-6.76c18.08,0.18,36.17-0.02,54.25,0.08
			c17.97,0.09,27.27,9.48,27.36,27.48c0.06,11.51-0.26,23.03,0.24,34.52c0.1,2.33,2.63,5.8,4.82,6.6
			c13.34,4.86,27.22,8.36,40.32,13.75c12.85,5.29,24.99,12.28,38.76,19.18c8.48-8.62,17.58-17.99,26.82-27.22
			c13.61-13.6,26.2-13.63,39.78-0.14c13.22,13.13,26.43,26.27,39.52,39.54c12.43,12.61,12.37,25.34-0.15,38.02
			c-9.4,9.51-18.99,18.83-28.67,28.39c15.52,25.01,26.81,50.96,33.6,78.86c0.49,2,4.52,4.32,7.02,4.46
			c9.84,0.51,19.75,0.74,29.57,0.09c14.6-0.96,25.6,3.76,31.89,17.5c0,25.23,0,50.46,0,75.68c-6.02,13.9-16.84,18.88-31.57,18.03
			c-11.73-0.67-23.52-0.14-33.19-0.14c-11.83,28.65-23.16,56.09-35.29,85.47c7.46,7.36,17.03,16.66,26.44,26.13
			c12.86,12.94,12.85,25.62-0.03,38.62c-13.32,13.44-26.67,26.84-40.14,40.12c-12.33,12.16-25.2,12.17-37.45,0.16
			c-9.4-9.21-18.68-18.54-28.02-27.8c-0.19-0.19-0.47-0.28,1.16,0.68c-28.83,11.95-56.46,23.41-85.41,35.4
			c0,10.89,0.05,24.02-0.01,37.16c-0.08,18.1-9.36,27.47-27.26,27.51c-19.19,0.04-38.39,0.07-57.58-0.01
			c-16.09-0.07-25.55-9.15-26.01-25.35c-0.34-12.05-0.23-24.13-0.02-36.19c0.08-4.26-1.23-6.42-5.57-7.43
			c-27.46-6.36-52.96-17.47-77.91-33.08c-8.67,8.75-17.45,17.65-26.28,26.5c-15.6,15.6-27.02,15.55-42.71-0.12
			c-12.6-12.6-25.26-25.15-37.79-37.82c-12.46-12.6-12.47-25.49-0.11-38.04c9.04-9.18,18.18-18.27,27.26-27.41
			c0.37-0.37,0.57-0.92,1.09-1.81c-15.18-24.37-26.53-50.62-33.35-78.82c-0.42-1.73-4.34-3.62-6.69-3.69
			c-11.78-0.38-23.58-0.07-35.36-0.21c-16.45-0.19-26.11-9.68-26.28-26.12c-0.2-19.74-0.5-39.5,0.23-59.21
			c0.22-5.88,2.97-12.1,5.98-17.34c4.21-7.31,3.37-9.81-4.64-12.79c-19.4-7.21-38.59-14.98-60.23-23.46
			c-5.16,5.52-11.86,13.1-19.01,20.23c-11.34,11.31-22.94,11.18-34.41-0.13c-10.93-10.78-21.81-21.62-32.55-32.59
			c-10.46-10.68-10.46-22.58-0.11-33.34c5.89-6.12,11.85-12.19,18.04-18.01c3.06-2.88,3.31-5.01,1.5-9.1
			c-7.96-17.95-15.13-36.26-22.95-54.28c-0.98-2.26-4.06-4.92-6.33-5.07c-8.73-0.6-17.54-0.07-26.3-0.3
			c-14.9-0.38-23.37-8.96-23.49-23.78c-0.13-15.63-0.13-31.26,0-46.89c0.12-14.63,8.02-22.99,22.65-23.65
			c9.03-0.41,18.11,0.17,27.13-0.35c2.19-0.13,5.35-2.38,6.16-4.41c7.96-19.99,15.52-40.14,23.94-62.19
			c-5.28-5.18-12.58-12.15-19.67-19.33c-11.23-11.37-11.26-23.18-0.08-34.52c10.58-10.74,21.25-21.4,31.99-31.99
			c11.65-11.5,23.27-11.36,35.11,0.32c5.85,5.78,11.39,11.91,17.61,17.26c1.75,1.51,5.83,1.88,8.12,0.97
			c18.26-7.25,36.24-15.2,54.56-22.28c4.13-1.6,5.7-3.18,5.57-7.38c-0.21-6.85,0.37-13.74-0.14-20.56
			c-0.98-13.12,3.54-22.9,15.73-28.62C368.37,118.78,389.21,118.78,410.05,118.78z M673.07,936.11c0-14.03-0.06-27.16,0.02-40.29
			c0.09-15.32,6.42-23.29,21.29-26.73c25.03-5.78,48.45-15.39,70.33-28.86c14.84-9.14,24.15-7.93,36.54,4.45
			c9.04,9.03,18.03,18.12,26.52,26.66c14.89-14.86,29-28.95,43.24-43.17c-0.02-0.04-0.15-0.64-0.51-1.01
			c-8.48-8.57-16.99-17.12-25.49-25.66c-12.76-12.82-13.89-21.82-4.51-37.19c12.5-20.48,21.77-42.29,27.53-65.61
			c5.33-21.55,10.75-25.64,33.22-25.64c11.66,0,23.32,0,34.74,0c0-21.19,0-41.06,0-61.6c-13.42,0-26.27,0.08-39.11-0.02
			c-16.6-0.13-24.03-6-27.85-22.03c-5.9-24.7-15.35-47.9-28.67-69.55c-9.18-14.92-8.04-24.27,4.24-36.58
			c9.05-9.07,18.16-18.07,26.54-26.4c-14.91-14.87-29.02-28.94-43.83-43.71c-8.67,8.83-17.78,18.28-27.08,27.53
			c-11.21,11.16-21.09,12.36-34.68,3.94c-22.08-13.69-45.79-23.33-71.01-29.42c-15.53-3.75-21.38-11.23-21.45-27.36
			c-0.05-13.07-0.01-26.14-0.01-39.61c-20.88,0-40.73,0-61.63,0c0,13.26,0.06,26.07-0.01,38.89c-0.1,17.14-5.57,24.28-22.4,28.36
			c-24.95,6.05-48.34,15.71-70.19,29.21c-13.54,8.37-23.46,7.12-34.66-4.06c-9.27-9.26-18.4-18.66-26.52-26.9
			c-14.98,14.92-29.21,29.1-43.61,43.46c-0.25-0.42-0.05,0.13,0.31,0.5c8.31,8.36,16.64,16.7,24.96,25.05
			c13.05,13.09,14.09,21.98,4.31,37.92c-12.26,19.99-21.33,41.33-26.98,64.08c-5.56,22.4-10.95,26.71-34.12,26.72
			c-11.42,0-22.85,0-34.16,0c0,21.17,0,41.04,0,61.6c13.42,0,26.26-0.03,39.1,0.01c16.66,0.04,23.95,5.65,27.89,21.82
			c6.02,24.65,15.33,47.91,28.7,69.53c9.39,15.18,8.12,24.34-4.74,37.23c-8.85,8.87-17.77,17.69-26.15,26.03
			c14.84,14.73,28.98,28.75,43.81,43.46c8.57-8.66,17.54-17.82,26.63-26.89c11.91-11.89,21.59-13.13,35.97-4.2
			c21.36,13.27,44.3,22.61,68.67,28.64c17.88,4.42,23.13,11.14,23.19,29.38c0.04,12.55,0.01,25.1,0.01,38.03
			C632.26,936.11,652.14,936.11,673.07,936.11z M425.26,503.39c-9.44-9.4-18.33-18.72-27.82-27.37c-2.57-2.34-7.09-3.99-10.52-3.7
			c-70.28,6.05-122.14-66.94-93.27-131.55c5.38-12.04,11.42-16.02,19.37-12.77c7.86,3.22,8.89,10.12,3.35,22.47
			c-20.76,46.23,13.49,98.16,64.14,97.34c4.87-0.08,7.99-1.65,11.66-5.58c16.08-17.2,32.76-33.89,49.95-49.99
			c3.9-3.65,5.58-6.77,5.68-11.64c0.62-30.08-18.15-56.98-46.67-66.69c-14.77-5.03-29.51-4.82-44.37-0.09
			c-9.98,3.17-18-1.28-18.38-10.03c-0.35-7.95,4.85-11.48,11.69-13.75c62.92-20.94,127.57,30.28,122.21,96.81
			c-0.21,2.56-0.52,6.12,0.9,7.63c9.89,10.49,20.23,20.56,30.39,30.73c24.93-15.69,50.75-26.66,78.38-33.44
			c1.85-0.45,4.51-2.85,4.57-4.44c0.42-10.01,0.21-20.05,0.21-30.77c-18.29,0.87-23.94-9.86-28.47-24.57
			c-5.34-17.36-13.17-34.11-21.32-50.42c-6.99-13.99-6.98-21.91,4.36-33.01c6.75-6.6,13.98-12.7,19.86-18
			c-11.94-11.99-22.13-22.23-33.21-33.36c-6.25,6.59-12.86,13.92-19.86,20.85c-9.64,9.56-18.7,10.62-30.38,3.42
			c-17.88-11.03-36.99-18.87-57.42-23.71c-13.14-3.12-18.57-10.33-18.67-24.13c-0.08-9.79-0.01-19.57-0.01-29.72
			c-15.32,0-29.71,0-45.04,0c0,10.2,0.14,19.99-0.03,29.78c-0.26,14.15-5.73,20.86-19.66,24.25c-19.84,4.84-38.48,12.48-55.92,23.13
			c-12.59,7.69-21.32,6.67-31.64-3.65c-6.88-6.88-13.52-14.01-19.19-19.91c-11.48,11.38-21.71,21.52-32.1,31.82
			c-0.12-0.23,0.04,0.35,0.41,0.72c6.17,6.24,12.37,12.44,18.54,18.67c10.78,10.89,10.88,18.88,4.37,32.4
			c-8.62,17.9-16.37,36.33-22.91,55.09c-5.17,14.82-10.44,20.13-26.45,20.22c-9.26,0.05-18.52,0.01-27.79,0.01
			c0,15.57,0,30.16,0,45.15c10.26,0,19.83-0.05,29.41,0.01c14.24,0.09,19.86,5.74,24.62,19.28c6.6,18.74,14.04,37.3,22.72,55.16
			c6.99,14.37,7.12,22.28-4.54,33.71c-6.57,6.43-13.63,12.36-20.05,18.13c12.03,11.97,22.26,22.15,33.59,33.42
			c3.03-3.49,6.33-7.52,9.88-11.33c3.55-3.81,7.25-7.48,11.04-11.06c8.56-8.08,17.81-9.57,27.73-3.48
			c18.84,11.57,38.85,20.03,60.41,25.02c10.44,2.42,16.48,9.24,17.42,20.2c0.16,1.83,0.67,3.62,1.14,6.09
			c9.85,0,19.41,0.25,28.94-0.22c1.87-0.09,4.76-2.69,5.24-4.61C398.56,554.29,409.53,528.47,425.26,503.39z"/>
		<path style="fill: #000;" class="st0" d="M630.53,800.33c-29.23-0.32-64.68-13.98-94.89-41.16c-1.63-1.46-3.34-2.9-4.65-4.64
			c-3.95-5.25-4.14-10.82,0.21-15.77c4.61-5.24,10.43-6.02,16.18-1.88c4.21,3.03,7.82,6.88,11.9,10.1
			c43.66,34.51,104.3,38.39,151.83,9.77c47.84-28.81,72.36-83.69,62.39-139.63c-9.47-53.08-52.73-96.9-106.95-106.18
			c-50.08-8.58-93.23,6.24-126.11,45.11c-33.07,39.09-40.16,84.04-23.45,132.51c4.28,12.42,2.9,19.6-5.06,22.3
			c-8.16,2.76-13.78-1.21-18.17-14.15c-20.39-60.25-10.49-115.28,32.79-161.84c44.3-47.66,100.18-62.38,162.12-43.55
			c60.38,18.35,97.64,60.96,109.08,123.07C815.73,712.02,740.76,800.47,630.53,800.33z"/>
		<path style="fill: #000;" class="st0" d="M738.26,643c-0.92,53.69-44.44,96.4-97.07,95.27c-54.23-1.17-95.92-44.3-94.86-98.15
			c1.06-53.41,44.45-94.89,98.14-93.82C697.06,547.36,739.16,590.77,738.26,643z M570.95,641.45c-0.33,39.81,30.9,71.67,70.73,72.18
			c39.31,0.5,71.61-31.42,71.96-71.1c0.34-39.16-31.15-71.16-70.46-71.6C603.28,570.49,571.28,601.73,570.95,641.45z"/>
	</g>
</g>
</svg>
